<svg width="95" height="97" viewBox="0 0 95 97" fill="none" xmlns="http://www.w3.org/2000/svg">
<circle cx="47.5" cy="47.5" r="46" stroke="#364CC3" stroke-width="3"/>
<circle cx="47.5" cy="47.5" r="39.5" fill="#364CC3"/>
<path d="M48.4146 65.548C46.7685 65.548 45.1224 65.548 43.4763 65.548C42.212 65.548 41.5082 64.8121 41.4963 63.554C41.4963 62.9013 41.4844 62.2485 41.4963 61.5957C41.544 60.0646 40.9595 58.8303 39.9098 57.7146C38.7886 56.5159 37.7151 55.2697 36.737 53.9523C33.0393 48.9674 33.6237 43.579 36.8205 39.0452C39.9456 34.6182 44.3948 32.6717 49.7863 33.1108C56.3706 33.6449 61.6906 38.9977 62.454 45.5492C62.8595 48.9674 61.6309 51.8278 59.6628 54.4507C58.804 55.602 57.8378 56.6939 56.8358 57.7265C55.7742 58.8303 55.2255 60.0884 55.2732 61.6076C55.2971 62.2603 55.2852 62.9131 55.2732 63.5659C55.2613 64.8121 54.5456 65.5361 53.2693 65.5361C51.659 65.548 50.0368 65.548 48.4146 65.548ZM53.0904 63.3404C53.0904 62.7351 53.1023 62.1773 53.0904 61.6313C53.0546 59.5068 53.8061 57.7265 55.2852 56.1954C56.3229 55.1154 57.2891 53.9523 58.1956 52.7535C59.9371 50.4273 60.796 47.828 60.1399 44.9083C59.0545 40.0659 56.1321 36.8139 51.2893 35.6033C46.4345 34.3927 42.2358 35.8288 39.0629 39.698C36.2241 43.1518 35.067 48.1959 38.6097 52.7773C39.5759 54.0235 40.6136 55.2222 41.6871 56.3853C42.6652 57.4535 43.369 58.6523 43.5718 60.0646C43.703 60.9429 43.6911 61.8331 43.6791 62.7232C43.6791 63.2098 43.7984 63.3641 44.3113 63.3641C47.0309 63.3404 49.7505 63.3523 52.4701 63.3523C52.6371 63.3641 52.8161 63.3523 53.0904 63.3404Z" fill="white"/>
<path d="M48.4146 66.2602C50.2635 66.2602 52.1004 66.2602 53.9492 66.2602C54.7842 66.2602 55.2852 66.6637 55.2852 67.3521C55.2852 68.0286 54.7961 68.4559 53.9492 68.4559C50.2396 68.4559 46.53 68.4677 42.8203 68.4559C41.9734 68.4559 41.4844 68.0286 41.4844 67.3521C41.4844 66.6756 41.9854 66.2602 42.8203 66.2602C44.693 66.2483 46.5538 66.2602 48.4146 66.2602Z" fill="white"/>
<path d="M48.3669 71.34C46.9952 71.34 45.6354 71.34 44.2636 71.34C43.4406 71.34 42.9158 70.9009 42.9277 70.2363C42.9396 69.5835 43.4525 69.1443 44.2756 69.1325C47.0071 69.1206 49.7386 69.1325 52.4702 69.1325C53.3051 69.1325 53.818 69.5597 53.8419 70.2125C53.8538 70.889 53.3171 71.3282 52.4582 71.3282C51.0984 71.34 49.7386 71.34 48.3669 71.34Z" fill="white"/>
<path d="M49.5596 25.6573C49.5596 26.3339 49.5715 26.9985 49.5596 27.675C49.5477 28.399 49.0706 28.8975 48.4503 28.8975C47.83 28.8975 47.3529 28.3871 47.341 27.675C47.329 26.3101 47.329 24.9452 47.341 23.5922C47.3529 22.8445 47.7942 22.3935 48.4503 22.3816C49.0944 22.3816 49.5477 22.8445 49.5596 23.5803C49.5715 24.2806 49.5596 24.969 49.5596 25.6573Z" fill="white"/>
<path d="M66.6288 28.9094C66.4022 29.3011 66.2949 29.6097 66.0921 29.8233C65.1259 30.8203 64.1478 31.7935 63.1578 32.7549C62.621 33.2771 61.9888 33.289 61.5236 32.8142C61.0942 32.3751 61.1181 31.7223 61.5952 31.2357C62.5852 30.2387 63.5752 29.2536 64.5772 28.2566C64.9351 27.9006 65.3883 27.7582 65.8177 28.0193C66.1398 28.221 66.3545 28.589 66.6288 28.9094Z" fill="white"/>
<path d="M35.7948 32.1851C35.5681 32.4581 35.3773 32.8141 35.091 33.0278C34.7212 33.3008 34.256 33.2295 33.934 32.921C32.8247 31.8528 31.7273 30.7727 30.6657 29.6452C30.2601 29.2179 30.3675 28.6008 30.785 28.2091C31.2024 27.8293 31.8108 27.7818 32.2402 28.1972C33.3256 29.2417 34.3872 30.3098 35.4369 31.378C35.5801 31.5442 35.6278 31.8172 35.7948 32.1851Z" fill="white"/>
<path d="M35.8304 59.5307C35.6038 59.9342 35.4845 60.2665 35.2698 60.492C34.3275 61.4771 33.3494 62.4266 32.3712 63.388C31.8464 63.8984 31.1784 63.9221 30.7371 63.4711C30.2719 63.0082 30.2958 62.3792 30.8206 61.8569C31.7987 60.8718 32.7768 59.8986 33.7668 58.9254C34.1247 58.5693 34.566 58.3913 34.9954 58.6643C35.3175 58.8542 35.5441 59.2102 35.8304 59.5307Z" fill="white"/>
<path d="M62.2034 58.4031C62.597 58.6167 62.9072 58.7235 63.1219 58.9253C64.1358 59.8985 65.1258 60.8836 66.1158 61.8925C66.6049 62.391 66.6049 63.02 66.1636 63.471C65.7341 63.8983 65.0542 63.8983 64.5652 63.4235C63.5632 62.4384 62.5732 61.4415 61.5832 60.4564C61.2253 60.1003 61.0941 59.6374 61.3327 59.2101C61.5116 58.9016 61.8814 58.6879 62.2034 58.4031Z" fill="white"/>
<path d="M70.2193 46.926C69.5036 46.926 68.7879 46.9379 68.0841 46.926C67.4162 46.9142 66.9868 46.4869 66.9629 45.8816C66.951 45.2644 67.3565 44.7897 68.0245 44.7778C69.4917 44.7541 70.9588 44.7541 72.426 44.7778C73.0701 44.7897 73.5234 45.2882 73.4995 45.8816C73.4756 46.475 73.0105 46.9142 72.3663 46.926C71.6506 46.9379 70.935 46.926 70.2193 46.926Z" fill="white"/>
<path d="M26.6577 46.926C25.9659 46.926 25.2741 46.9378 24.5823 46.926C23.8904 46.9141 23.4133 46.4749 23.4133 45.8578C23.4014 45.2525 23.8785 44.7777 24.5703 44.7658C25.9778 44.7421 27.3854 44.7421 28.7929 44.7658C29.5443 44.7777 29.9738 45.2287 29.9499 45.8934C29.9261 46.5224 29.4728 46.9141 28.7452 46.926C28.0414 46.9378 27.3496 46.9378 26.6577 46.926Z" fill="white"/>
<path d="M48.4386 72.0521C48.9157 72.0521 49.3928 72.0403 49.87 72.0521C50.5021 72.0759 50.9196 72.4913 50.9316 73.0966C50.9435 73.69 50.5499 74.1766 49.9296 74.1885C48.9038 74.2123 47.866 74.2123 46.8402 74.1885C46.2319 74.1648 45.8383 73.6782 45.8621 73.0729C45.886 72.5032 46.2915 72.0878 46.8879 72.064C47.1503 72.0522 47.4008 72.064 47.6633 72.064C47.9137 72.0522 48.1762 72.0521 48.4386 72.0521Z" fill="white"/>
<path d="M58.1838 45.2644C58.1838 45.3712 58.1957 45.5374 58.1838 45.6917C58.148 46.297 57.7067 46.7599 57.1341 46.7717C56.5496 46.7955 56.0487 46.3326 56.0129 45.7035C55.9532 44.3505 55.6073 43.0924 54.7604 42.0124C53.5915 40.5051 52.0647 39.6624 50.1443 39.5793C49.6313 39.5556 49.1542 39.4725 48.8799 38.974C48.4505 38.1907 49.0349 37.3361 50.025 37.3599C52.2794 37.4429 54.2356 38.2619 55.822 39.876C57.2653 41.3596 58.0526 43.1518 58.1838 45.2644Z" fill="white"/>
</svg>
