<svg width="85" height="87" viewBox="0 0 85 87" fill="none" xmlns="http://www.w3.org/2000/svg">
<path d="M3.98438 54.3317C3.25125 54.3317 2.65625 53.7261 2.65625 52.9799V9.7244C2.65625 7.48863 4.44391 5.66919 6.64062 5.66919H78.3594C80.5561 5.66919 82.3438 7.48863 82.3438 9.7244V13.7796C82.3438 14.5258 81.7487 15.1313 81.0156 15.1313C80.2825 15.1313 79.6875 14.5258 79.6875 13.7796V9.7244C79.6875 8.98094 79.0898 8.37266 78.3594 8.37266H6.64062C5.91016 8.37266 5.3125 8.98094 5.3125 9.7244V52.9799C5.3125 53.7261 4.7175 54.3317 3.98438 54.3317Z" fill="white"/>
<path d="M42.5 84.0699H27.8906C27.1575 84.0699 26.5625 83.4643 26.5625 82.7182C26.5625 81.972 27.1575 81.3664 27.8906 81.3664H30.5469C32.7436 81.3664 34.5312 79.547 34.5312 77.3112V70.5525C34.5312 69.8064 35.1263 69.2008 35.8594 69.2008C36.5925 69.2008 37.1875 69.8064 37.1875 70.5525V77.3112C37.1875 78.8333 36.6908 80.2364 35.8567 81.3664H42.5C43.2331 81.3664 43.8281 81.972 43.8281 82.7182C43.8281 83.4643 43.2331 84.0699 42.5 84.0699Z" fill="white"/>
<path d="M41.1719 70.5525H6.64062C4.44391 70.5525 2.65625 68.7331 2.65625 66.4973V58.3869C2.65625 57.6407 3.25125 57.0352 3.98438 57.0352H41.1719C41.905 57.0352 42.5 57.6407 42.5 58.3869C42.5 59.1331 41.905 59.7386 41.1719 59.7386H5.3125V66.4973C5.3125 67.2408 5.91016 67.849 6.64062 67.849H41.1719C41.905 67.849 42.5 68.4546 42.5 69.2008C42.5 69.9469 41.905 70.5525 41.1719 70.5525Z" fill="white"/>
<path d="M57.1094 24.5935H70.3906C71.1237 24.5935 71.7188 23.9879 71.7188 23.2418C71.7188 22.4956 71.1237 21.89 70.3906 21.89H57.1094C56.3763 21.89 55.7812 22.4956 55.7812 23.2418C55.7812 23.9879 56.3763 24.5935 57.1094 24.5935Z" fill="white"/>
<path d="M62.4219 78.6629H65.0781C65.8113 78.6629 66.4062 78.0574 66.4062 77.3112C66.4062 76.5651 65.8113 75.9595 65.0781 75.9595H62.4219C61.6888 75.9595 61.0938 76.5651 61.0938 77.3112C61.0938 78.0574 61.6888 78.6629 62.4219 78.6629Z" fill="white"/>
<path d="M75.7031 84.0698H51.7969C48.1339 84.0698 45.1562 81.0392 45.1562 77.3112V23.2417C45.1562 19.5136 48.1339 16.483 51.7969 16.483H75.7031C79.3661 16.483 82.3438 19.5136 82.3438 23.2417V77.3112C82.3438 81.0392 79.3661 84.0698 75.7031 84.0698ZM51.7969 19.1865C49.6002 19.1865 47.8125 21.0059 47.8125 23.2417V77.3112C47.8125 79.5469 49.6002 81.3664 51.7969 81.3664H75.7031C77.8998 81.3664 79.6875 79.5469 79.6875 77.3112V23.2417C79.6875 21.0059 77.8998 19.1865 75.7031 19.1865H51.7969Z" fill="white"/>
</svg>
