<svg width="88" height="97" viewBox="0 0 88 97" fill="none" xmlns="http://www.w3.org/2000/svg">
<path d="M47.7294 73.1482C49.6667 73.1482 51.5784 73.1482 53.4137 73.1482C53.6941 71.2955 53.8216 69.4936 54.2549 67.7679C55.0961 64.3163 56.9824 61.4485 59.5569 59.0122C63.1765 55.586 65.3686 51.3732 66.2353 46.4751C68.2745 34.8516 60.2706 23.2281 48.6216 21.0455C42.198 19.8527 36.2843 21.0963 30.9569 24.9285C30.8549 25.0046 30.7529 25.0807 30.651 25.1569C30.0392 25.5883 29.4275 25.6391 28.9686 25.03C28.4588 24.3701 28.6882 23.7864 29.3255 23.3042C31.4157 21.7307 33.7098 20.5126 36.2079 19.6497C50.5588 14.7008 66.1843 23.9895 68.5039 38.9376C69.8294 47.4902 67.2294 54.7739 61.0353 60.7887C57.9765 63.758 56.2431 67.311 55.9628 71.5493C55.9373 72.0823 55.9628 72.6152 55.9628 73.1228C58.4098 74.1126 59.2765 75.3307 58.9706 77.4626C58.9196 77.8432 58.8686 78.3001 58.6392 78.5285C57.7726 79.4167 57.6961 80.3811 57.9765 81.5486C58.2314 82.6145 57.7471 83.5788 57.0078 84.4164C56.8294 84.6194 56.7275 85.0762 56.8039 85.3554C57.4922 87.7156 56.5235 89.5429 54.1275 90.3042C53.898 90.3804 53.6431 90.6595 53.5412 90.8879C52.1647 94.3902 49.5392 96.2429 45.7667 96.2175C44.1353 96.2175 42.5039 96.2936 40.898 96.0398C37.9922 95.583 36.0549 93.8065 35.0098 91.0656C34.8569 90.6342 34.7039 90.355 34.1686 90.2027C31.9765 89.6444 30.9314 87.6395 31.6451 85.4569C31.8235 84.9239 31.7471 84.6194 31.3647 84.2387C30.3196 83.1474 30.2431 81.8277 30.6 80.4065C30.6765 80.102 30.651 79.6451 30.4726 79.4421C28.4588 77.158 29.249 74.2141 32.1294 73.2243C32.2314 73.1989 32.3078 73.1482 32.4608 73.072C32.5882 70.1281 32.0529 67.2857 30.498 64.7224C29.6059 63.2504 28.4843 61.8546 27.2608 60.6364C22.0863 55.5607 19.4863 49.419 19.5628 42.2114C19.6137 38.5061 20.5314 35.0038 22.2137 31.7046C22.6726 30.791 23.2588 30.5118 23.9216 30.8671C24.5843 31.2224 24.6863 31.8315 24.2275 32.7705C19.7667 42.0084 21.551 52.0076 28.9686 59.1137C32.7412 62.7429 34.6784 67.1334 34.7549 72.336C34.7549 72.5645 34.7549 72.7675 34.7549 73.072C36.7177 73.072 38.6294 73.072 40.6686 73.072C40.1588 70.8641 39.649 68.6561 39.1392 66.4482C38.0686 61.9561 36.998 57.4387 35.953 52.9467C35.7235 51.9569 35.3157 51.2209 34.1686 50.9925C33.8118 50.9163 33.3784 50.2311 33.3784 49.7997C33.3529 49.1145 33.9392 48.7592 34.6275 48.8099C35.6726 48.886 36.5137 49.3936 37.1255 50.2057C37.5333 50.7387 37.8902 51.297 38.3235 51.8046C38.9353 52.566 39.5216 52.566 40.1333 51.83C40.5412 51.3478 40.8726 50.7895 41.2549 50.3073C42.8353 48.3277 45.2059 48.3277 46.7608 50.3073C47.1686 50.8402 47.5255 51.3985 47.9588 51.9061C48.5196 52.566 49.0804 52.566 49.6412 51.9061C50.0745 51.3985 50.4314 50.8402 50.8392 50.3073C51.451 49.4951 52.2667 48.9622 53.3118 48.8353C54.0255 48.7592 54.5863 49.0383 54.6882 49.8251C54.7902 50.5357 54.4078 50.9925 53.6941 51.094C52.8274 51.2209 52.3941 51.7792 52.2412 52.5152C50.6863 59.3421 49.1569 66.169 47.6275 73.0213C47.7039 73.0466 47.7039 73.0974 47.7294 73.1482ZM49.4628 54.6724C47.449 54.8754 46.3529 53.7334 45.4353 52.3122C45.2824 52.0838 45.1039 51.83 44.9255 51.627C44.3392 50.9925 43.8294 50.9671 43.2431 51.6016C43.0392 51.83 42.8353 52.0838 42.6569 52.3629C41.7647 53.7588 40.6686 54.8501 38.7059 54.6978C40.1843 60.941 41.6118 67.0573 43.0392 73.1735C43.8294 73.1735 44.5177 73.1735 45.2569 73.1735C46.6843 67.0065 48.0608 60.9156 49.4628 54.6724ZM44.0843 78.1478C47.7804 78.1478 51.4765 78.1478 55.1726 78.1478C56.0137 78.1478 56.6 77.8686 56.6765 76.955C56.7529 75.9906 56.2686 75.483 55.1726 75.483C50.151 75.483 45.1039 75.483 40.0824 75.483C37.7628 75.483 35.4431 75.483 33.098 75.483C32.2824 75.483 31.7471 75.8129 31.6706 76.6758C31.5941 77.6402 32.0784 78.1478 33.1745 78.1478C36.8196 78.1478 40.4647 78.1478 44.0843 78.1478ZM44.2118 83.0966C47.5255 83.0966 50.8392 83.0966 54.1275 83.0966C54.9686 83.0966 55.5549 82.8429 55.6314 81.9038C55.7078 80.9141 55.2235 80.4319 54.1275 80.4319C49.7431 80.4319 45.3333 80.4319 40.949 80.4319C38.6549 80.4319 36.3608 80.4319 34.0667 80.4319C33.251 80.4319 32.7157 80.7364 32.6392 81.6247C32.5628 82.6145 33.0471 83.0966 34.1431 83.0966C37.5333 83.0966 40.8726 83.0966 44.2118 83.0966ZM44.1608 88.0455C47.1177 88.0455 50.0745 88.0455 53.0569 88.0455C54.1529 88.0455 54.6628 87.6395 54.6882 86.7512C54.7137 85.8376 54.1784 85.3807 53.0569 85.3807C47.1686 85.3807 41.2804 85.3807 35.3922 85.3807C34.2451 85.3807 33.7098 85.8122 33.7098 86.7258C33.7098 87.6395 34.2196 88.0455 35.3922 88.0455C38.298 88.0455 41.2294 88.0455 44.1608 88.0455ZM37.1765 90.355C37.6353 91.7001 38.451 92.5629 39.5471 93.2228C41.4333 94.3141 47.0412 94.2887 48.902 93.172C49.9726 92.5376 50.7628 91.6493 51.1961 90.355C46.4804 90.355 41.8922 90.355 37.1765 90.355Z" fill="#364CC3"/>
<path d="M25.9863 39.3944C25.2216 39.369 24.7373 38.6584 24.9667 37.8209C25.9863 34.0141 27.949 30.791 30.8804 28.1516C33.6843 25.6391 36.9726 24.0656 40.6941 23.355C41.3059 23.2281 41.9177 23.2027 42.3 23.8372C42.7588 24.5985 42.3 25.3853 41.2549 25.5883C39.0118 25.9944 36.8961 26.7557 34.9588 27.9739C31.1608 30.3342 28.6118 33.6588 27.3373 37.9478C27.0059 39.0391 26.649 39.4198 25.9863 39.3944Z" fill="#364CC3"/>
<path d="M12.6549 11.63C13.0627 11.8838 13.4196 12.0107 13.6745 12.2645C15.9176 14.4724 18.1353 16.6804 20.3529 18.9137C20.9137 19.4467 21.0667 20.0811 20.4804 20.6649C19.8941 21.2486 19.2824 21.0709 18.7216 20.538C16.5039 18.33 14.2608 16.1221 12.0686 13.8633C11.7627 13.5588 11.6608 12.8989 11.7118 12.4421C11.7882 12.1376 12.298 11.9346 12.6549 11.63Z" fill="#364CC3"/>
<path d="M76.9412 12.8735C76.6608 13.3049 76.5078 13.6602 76.2529 13.914C74.0608 16.122 71.8686 18.3046 69.651 20.4871C68.9882 21.147 68.3 21.1977 67.8157 20.6394C67.2804 20.0049 67.4588 19.4212 68.0196 18.8883C70.2373 16.6803 72.4549 14.447 74.7235 12.2644C75.0294 11.9852 75.6412 11.8583 76.0745 11.9345C76.4059 11.9852 76.6353 12.4928 76.9412 12.8735Z" fill="#364CC3"/>
<path d="M43.0392 6.24967C43.0392 4.85384 43.0392 3.458 43.0392 2.06217C43.0392 1.14853 43.5235 0.590201 44.2118 0.666338C45.0275 0.742474 45.3333 1.27543 45.3333 2.06217C45.3333 4.85384 45.3333 7.6455 45.3333 10.4372C45.3333 11.3254 44.849 11.9091 44.1608 11.833C43.3451 11.7569 43.0392 11.2239 43.0392 10.4372C43.0392 9.04134 43.0392 7.6455 43.0392 6.24967Z" fill="#364CC3"/>
<path d="M6.05294 43.0996C7.4549 43.0996 8.85686 43.0996 10.2588 43.0996C11.049 43.0996 11.6098 43.4042 11.6353 44.2163C11.6608 45.0284 11.1 45.3837 10.3098 45.3837C7.45491 45.3837 4.57451 45.3837 1.71961 45.3837C0.980393 45.3837 0.445099 45.0284 0.445099 44.267C0.445099 43.4549 0.980396 43.0996 1.77059 43.0996C3.17255 43.0996 4.6 43.0996 6.05294 43.0996Z" fill="#364CC3"/>
<path d="M82.4216 43.0996C83.798 43.0996 85.1745 43.0996 86.5255 43.0996C87.4431 43.0996 88.0039 43.5564 87.9529 44.267C87.8765 45.0792 87.3412 45.3837 86.5765 45.3837C83.7725 45.3837 80.9686 45.3837 78.1647 45.3837C77.2471 45.3837 76.6863 44.9015 76.7373 44.2163C76.8137 43.4042 77.349 43.0996 78.1137 43.0996C79.5667 43.125 80.9941 43.0996 82.4216 43.0996Z" fill="#364CC3"/>
<path d="M26.598 42.3637C26.598 43.4296 26.1902 43.9879 25.4255 43.9625C24.7118 43.9372 24.3039 43.3788 24.3039 42.4906C24.3039 41.45 24.7627 40.8663 25.502 40.8663C26.2157 40.8917 26.598 41.4247 26.598 42.3637Z" fill="#364CC3"/>
</svg>
