<svg width="95" height="95" viewBox="0 0 95 95" fill="none" xmlns="http://www.w3.org/2000/svg">
<circle cx="47.5" cy="47.5" r="46" stroke="#364CC3" stroke-width="3"/>
<circle cx="47.5" cy="47.5" r="39.5" fill="#364CC3"/>
<path d="M70.6999 36.3222C71.411 37.3111 72.1443 38.2111 72.7555 39.2C75.311 43.3778 76.1888 47.9222 75.2777 52.7222C73.7999 60.5333 69.211 65.8555 61.8999 68.8555C59.7666 69.7333 57.4999 70.1444 55.1999 70.1555C45.811 70.1778 36.4221 70.1667 27.0332 70.1667C26.3221 70.1667 25.9221 69.8555 25.9221 69.2889C25.9221 68.7333 26.3221 68.4111 27.0221 68.4111C33.2666 68.4111 39.5221 68.4111 45.7666 68.4111C45.9555 68.4111 46.1555 68.4111 46.3443 68.4111C46.3443 68.3778 46.3555 68.3555 46.3555 68.3222C45.7555 67.9778 45.1443 67.6555 44.5555 67.2778C39.5555 64.0444 36.4888 59.4889 35.8555 53.5889C34.9221 44.9555 38.3999 38.2889 45.5221 33.4444C46.0666 33.0778 46.5999 33.1555 46.8777 33.6111C47.1777 34.0778 47.011 34.5778 46.4332 34.9555C42.2443 37.7 39.3888 41.4333 38.0666 46.2778C35.6888 54.9555 39.9777 64 48.1666 67.1222C55.3443 69.8555 61.8666 68.3667 67.5666 63.3222C71.0666 60.2222 73.1443 56.2667 73.6888 51.6C74.3332 46.1 72.811 41.2555 68.9666 37.2111C68.3777 36.5889 68.3777 36.2222 68.9666 35.6111C69.5555 35 70.1332 34.3778 70.7332 33.7667C71.1999 33.2889 71.6999 33.2444 72.0999 33.6111C72.4999 33.9778 72.4666 34.5 72.0221 34.9778C71.5777 35.4333 71.1221 35.8889 70.6999 36.3222Z" fill="white"/>
<path d="M60.5222 30.5889C60.7 29.6333 60.8778 28.7111 61.0667 27.7222C60.5889 27.6111 60.1444 27.5111 59.6444 27.4C59.5778 27.6444 59.5444 27.8333 59.4778 28.0222C59.3333 28.4555 58.8889 28.7333 58.4778 28.6222C58.0111 28.5 57.7222 28.1889 57.7667 27.7C57.8222 27.1555 57.9333 26.6 58.0667 26.0666C58.1889 25.5777 58.5667 25.3666 59.0444 25.4666C60.1444 25.6889 61.2444 25.9222 62.3333 26.2C62.8667 26.3333 63.0333 26.7666 62.9111 27.4666C62.7222 28.4777 62.5222 29.5 62.3333 30.5111C62.3 30.6889 62.2778 30.8666 62.2444 31.0666C63.9778 31.6222 65.5778 32.3555 67.0555 33.3444C67.2222 33.4555 67.3889 33.5777 67.5111 33.7333C67.7667 34.0666 67.7333 34.4333 67.4778 34.7555C67.2222 35.0777 66.8778 35.1777 66.4889 35.0444C66.3667 35 66.2556 34.9222 66.1556 34.8555C61.0778 31.6444 55.7111 31.2 50.0889 33.1222C49.1222 33.4555 48.8111 33.3444 48.4 32.4111C48.1333 31.8 47.8555 31.2 47.5889 30.5889C47.2667 29.8555 47.3778 29.3555 47.9222 29.1222C48.4444 28.9 48.8667 29.1333 49.1889 29.8444C49.4111 30.3333 49.6222 30.8111 49.8444 31.2889C53.6333 30.2 55.9889 29.8889 60.5222 30.5889Z" fill="white"/>
<path d="M53.0332 50.1444C53.0999 48.9778 53.8221 47.9889 54.9443 47.6778C55.3554 47.5667 55.4776 47.3555 55.5554 46.9778C56.0665 44.3667 56.5999 41.7667 57.1221 39.1667C57.2554 38.5333 57.5554 38.2333 58.0443 38.2444C58.6332 38.2555 58.9999 38.7444 58.8665 39.4C58.3332 42.1 57.7999 44.7889 57.2332 47.4778C57.1554 47.8444 57.1999 48.0778 57.4776 48.3555C58.2443 49.1333 58.411 50.3444 57.9332 51.3444C57.4665 52.3333 56.4443 52.9333 55.3776 52.8555C54.3776 52.7778 53.4888 52.0555 53.1776 51.0222C53.0999 50.7333 53.0776 50.4333 53.0332 50.1444ZM55.6665 49.3222C55.1888 49.3222 54.8221 49.7222 54.8221 50.2222C54.8332 50.6889 55.1777 51.0778 55.5777 51.0778C56.0332 51.0778 56.4221 50.6555 56.4221 50.1667C56.4221 49.6889 56.0999 49.3222 55.6665 49.3222Z" fill="white"/>
<path d="M42.7778 27.5554C40.0111 27.5554 37.2333 27.5554 34.4667 27.5554C34.3222 27.5554 34.1667 27.5554 34.0222 27.5554C33.4111 27.5443 33.0222 27.211 33.0222 26.6776C33.0222 26.1554 33.4 25.7999 34.0111 25.7999C35.3 25.7887 36.6 25.7999 37.8889 25.7999C42.3778 25.7999 46.8667 25.7999 51.3556 25.7999C51.4333 25.7999 51.5 25.7999 51.5778 25.7999C52.1444 25.8221 52.5111 26.1665 52.5222 26.6776C52.5222 27.1888 52.1555 27.5443 51.5889 27.5554C50.3111 27.5665 49.0444 27.5554 47.7667 27.5554C46.1 27.5554 44.4333 27.5554 42.7778 27.5554Z" fill="white"/>
<path d="M33.0332 32.8999C35.0666 32.8999 37.0999 32.8999 39.1221 32.8999C39.5332 32.8999 39.8888 33.0332 39.9888 33.4332C40.0555 33.6999 40.0221 34.0777 39.8666 34.2999C39.7332 34.4999 39.3777 34.6443 39.111 34.6443C35.0332 34.6666 30.9443 34.6666 26.8666 34.6555C26.2666 34.6555 25.8888 34.2777 25.8999 33.7555C25.911 33.2555 26.2888 32.911 26.8666 32.911C28.9332 32.8999 30.9888 32.8999 33.0332 32.8999Z" fill="white"/>
<path d="M31.211 63.0556C29.811 63.0556 28.3999 63.0556 26.9999 63.0556C26.311 63.0556 25.911 62.7112 25.9221 62.1556C25.9332 61.6223 26.3221 61.3 26.9888 61.3C29.8332 61.3 32.6777 61.3 35.511 61.3C36.1554 61.3 36.5443 61.6556 36.5332 62.2C36.5221 62.7223 36.1332 63.0445 35.5221 63.0556C34.0888 63.0556 32.6443 63.0556 31.211 63.0556Z" fill="white"/>
<path d="M25.9221 40C26.7555 40 27.5777 40 28.411 40C29.0666 40 29.4555 40.3444 29.4443 40.8889C29.4443 41.4333 29.0555 41.7556 28.3888 41.7556C26.7332 41.7556 25.0666 41.7556 23.411 41.7556C22.7555 41.7556 22.3666 41.4222 22.3777 40.8667C22.3777 40.3222 22.7666 40 23.4332 40C24.2555 40 25.0888 40 25.9221 40Z" fill="white"/>
<path d="M25.8999 55.9555C25.0666 55.9555 24.2443 55.9555 23.411 55.9555C22.7555 55.9555 22.3666 55.6111 22.3777 55.0666C22.3888 54.5222 22.7777 54.2 23.4332 54.2C25.0888 54.2 26.7555 54.2 28.411 54.2C29.0666 54.2 29.4555 54.5444 29.4443 55.0888C29.4332 55.6333 29.0555 55.9555 28.3888 55.9555C27.5555 55.9666 26.7332 55.9555 25.8999 55.9555Z" fill="white"/>
<path d="M23.311 70.1555C22.7555 70.1444 22.3777 69.7888 22.3777 69.2777C22.3777 68.7555 22.7888 68.3888 23.3666 68.3999C23.911 68.411 24.311 68.7888 24.311 69.2777C24.311 69.7888 23.8777 70.1666 23.311 70.1555Z" fill="white"/>
<path d="M71.2555 44.9999C71.2444 45.4999 70.8111 45.8776 70.3 45.8554C69.7666 45.8332 69.3889 45.4443 69.4111 44.9332C69.4222 44.4443 69.8555 44.0888 70.4 44.0999C70.8778 44.1221 71.2666 44.5221 71.2555 44.9999Z" fill="white"/>
<path d="M41.7664 47.6778C41.7553 48.1667 41.3664 48.5334 40.8664 48.5223C40.3776 48.5112 39.9331 48.0778 39.9331 47.6112C39.9331 47.1112 40.3109 46.7445 40.8109 46.7556C41.3887 46.7778 41.7775 47.1445 41.7664 47.6778Z" fill="white"/>
<path d="M41.2665 56.5221C40.7331 56.5221 40.3442 56.1555 40.3442 55.6333C40.3442 55.1444 40.7442 54.7777 41.2887 54.7666C41.7665 54.7555 42.1776 55.1555 42.1887 55.6333C42.1998 56.1221 41.7887 56.5221 41.2665 56.5221Z" fill="white"/>
<path d="M53.4998 65.6777C53.4998 66.2221 53.0998 66.6777 52.5998 66.6888C52.122 66.6999 51.722 66.2999 51.7109 65.8221C51.6998 65.311 52.1442 64.8555 52.6442 64.8555C53.122 64.8555 53.5109 65.2221 53.4998 65.6777Z" fill="white"/>
<path d="M59.8222 34.9444C59.8111 35.4999 59.4111 35.9333 58.9111 35.9333C58.4333 35.9333 58.0222 35.5222 58.0222 35.0555C58.0222 34.5555 58.4889 34.0999 58.9778 34.111C59.4555 34.1222 59.8333 34.4888 59.8222 34.9444Z" fill="white"/>
<path d="M68.0554 60.3887C68.0665 60.8887 67.6998 61.2776 67.2109 61.2887C66.6998 61.2998 66.2887 60.8887 66.2776 60.3443C66.2776 59.8887 66.6443 59.4776 67.0776 59.4554C67.5443 59.411 68.0443 59.911 68.0554 60.3887Z" fill="white"/>
<path d="M61.4 65.0445C61.4111 65.5445 61.0555 65.9334 60.5666 65.9445C60.0555 65.9667 59.6555 65.5667 59.6555 65.0556C59.6555 64.5334 60.0333 64.1223 60.5333 64.1001C61.0111 64.089 61.3889 64.489 61.4 65.0445Z" fill="white"/>
<path d="M66.9221 38.3667C66.911 38.8667 66.4443 39.2667 65.911 39.2556C65.4554 39.2334 65.0665 38.8445 65.0776 38.4001C65.0887 37.9334 65.5887 37.4556 66.0665 37.4667C66.5332 37.4779 66.9443 37.9001 66.9221 38.3667Z" fill="white"/>
<path d="M46.4665 62.2C46.4665 62.7 46.0331 63.1334 45.4998 63.1334C45.0554 63.1334 44.6553 62.7445 44.6442 62.3C44.6331 61.8223 45.0998 61.3334 45.5887 61.3223C46.0553 61.3223 46.4665 61.7223 46.4665 62.2Z" fill="white"/>
<path d="M51.0331 36.6444C50.5331 36.6333 50.1665 36.2221 50.1887 35.6888C50.2109 35.1555 50.5998 34.7777 51.0998 34.7888C51.5776 34.7999 51.9554 35.2444 51.9331 35.7777C51.922 36.2555 51.4998 36.6555 51.0331 36.6444Z" fill="white"/>
<path d="M71.6776 53.0889C71.6665 53.5556 71.2331 53.9667 70.7665 53.9556C70.2665 53.9445 69.8109 53.4667 69.8443 52.9778C69.8665 52.4889 70.222 52.1556 70.7109 52.1778C71.2776 52.1778 71.6887 52.5778 71.6776 53.0889Z" fill="white"/>
<path d="M44.4776 41.2556C43.9665 41.2667 43.5554 40.8445 43.5554 40.3001C43.5554 39.8223 43.8999 39.4556 44.3665 39.4334C44.8554 39.4112 45.3221 39.8556 45.3221 40.3667C45.3332 40.8556 44.9665 41.2445 44.4776 41.2556Z" fill="white"/>
</svg>
