<svg width="118" height="90" viewBox="0 0 118 90" fill="none" xmlns="http://www.w3.org/2000/svg">
<path d="M77.5229 80.9909C76.5393 82.4616 75.7157 83.8634 74.7321 85.1732C72.3072 88.3674 69.036 89.6083 65.17 88.7351C61.4184 87.9078 59.0164 85.472 58.1929 81.6803C57.4151 78.0954 58.4902 74.9932 61.2125 72.5803C62.6765 71.2704 64.3922 70.2364 65.9478 69.1103C63.7059 66.9043 61.3955 64.6293 58.8105 62.0785C57.2321 63.756 55.6079 65.5944 53.8465 67.3409C46.6635 74.4646 39.4576 81.5424 32.2746 88.6432C30.7876 90.1139 30.1014 90.1139 28.6373 88.6432C26.121 86.0924 23.6046 83.5646 21.0197 80.9449C20.1275 82.3007 19.3497 83.5876 18.4804 84.8055C16.0785 88.1836 12.7844 89.5853 8.73535 88.7351C5.00659 87.9538 2.58175 85.5639 1.73535 81.8641C0.820314 77.8656 2.12424 74.4646 5.2811 71.8679C6.53927 70.8338 7.95757 70.0295 9.42162 69.0644C7.15692 66.7894 4.86933 64.4914 2.55888 62.2164C0.29417 59.9644 -0.0260916 59.7346 2.536 57.2757C5.48698 54.4492 8.30071 51.5078 11.1831 48.6124C12.3268 47.4634 13.7223 47.6932 14.5458 49.0949C15.5066 50.7495 16.4216 52.427 17.4968 53.9896C19.0295 56.2646 21.2713 57.023 23.8791 56.4025C26.1667 55.874 27.6079 54.3343 28.0425 52.0363C28.5229 49.4856 27.7451 47.3255 25.5491 45.8548C23.902 44.7518 22.1863 43.7636 20.4706 42.7755C18.6177 41.7184 18.4347 40.8222 19.9445 39.3285C25.5491 33.6985 31.1308 28.0684 36.7353 22.4613C37.0327 22.1626 37.3759 21.9328 37.8105 21.5881C36.3693 20.6459 35.1112 19.8417 33.8759 18.9914C30.536 16.6704 29.1406 13.4073 29.8955 9.45479C30.6733 5.43332 33.3726 2.92852 37.2157 1.94039C41.1504 0.906299 44.5131 2.23913 47.0066 5.47928C48.0131 6.76615 48.8367 8.1909 49.7746 9.61564C52.2909 7.08787 54.8072 4.53711 57.3236 2.00933C58.8791 0.446703 59.451 0.446706 60.9837 1.98635C72.8563 13.798 84.7059 25.6326 96.5556 37.4672C96.8301 37.7429 96.9674 38.1106 97.219 38.5012C98.2942 36.8697 99.0948 35.5369 100.01 34.273C102.275 31.1247 105.409 29.8149 109.16 30.4124C113.003 31.0098 115.588 33.3308 116.618 37.1225C117.624 40.8911 116.686 44.2692 113.712 46.8659C112.294 48.1068 110.624 49.072 109 50.2439C111.379 52.6108 113.804 55.0467 116.229 57.4596C117.578 58.8154 117.601 59.4818 116.343 60.9525C116.16 61.1593 115.977 61.3432 115.771 61.527C106.804 70.5351 97.8595 79.5432 88.8922 88.5283C87.2451 90.1828 86.6504 90.1828 85.0262 88.5283C82.5556 86.0465 80.085 83.5646 77.5229 80.9909ZM84.7746 31.5154C76.1275 22.806 67.5719 14.2116 58.9478 5.52524C56.2484 8.25984 53.4576 11.0634 50.6667 13.8899C49.1569 15.4066 48.2648 15.2457 47.1667 13.3614C46.0458 11.454 44.9706 9.50075 43.6667 7.7313C42.2027 5.73206 40.0066 5.29544 37.719 5.82398C35.3399 6.37549 33.9674 8.05302 33.487 10.4199C33.0295 12.7409 33.8072 14.6942 35.6831 16.05C37.4445 17.3139 39.3432 18.3939 41.1961 19.474C42.9347 20.4851 43.0948 21.4502 41.6765 22.875C39.2059 25.3798 36.7353 27.8616 34.2419 30.3434C33.9674 30.6422 33.6929 30.9409 33.5099 31.1247C35.8661 33.4916 38.1536 35.7667 40.4412 38.0646C41.3334 36.7318 42.2255 35.2611 43.2321 33.8823C45.7713 30.4583 50.3922 29.2634 54.3955 30.9179C58.2844 32.5035 60.5948 36.5709 60.1144 40.7762C59.7255 44.1773 57.804 46.4982 55.0818 48.2906C54.1438 48.9111 53.1831 49.4856 52.3367 50.0141C54.67 52.3581 56.9576 54.6331 59.2909 56.954C59.4968 56.7702 59.7713 56.5174 60.0229 56.2646C62.4706 53.8058 64.9184 51.347 67.3661 48.8881C69.2419 47.0038 69.9968 47.1187 71.3007 49.3937C72.3072 51.1401 73.2909 52.9326 74.4804 54.5411C76.0589 56.6783 78.3007 57.2528 80.7942 56.5634C83.1961 55.897 84.5458 54.1964 84.8203 51.6917C85.0948 49.3247 84.2255 47.3944 82.2582 46.0616C80.7255 45.0275 79.1242 44.0624 77.4772 43.1432C75.1896 41.8793 75.0523 41.098 76.9282 39.2136C78.3007 37.8348 79.6733 36.456 81.0458 35.0773C82.3726 33.8823 83.6536 32.6184 84.7746 31.5154ZM80.2223 40.7303C81.7321 41.7414 83.219 42.6146 84.5687 43.6717C87.5883 46.0616 88.7321 49.3018 88.0229 53.0475C87.268 56.931 84.8889 59.4588 81.0229 60.3321C77.0883 61.2283 73.817 59.9414 71.3465 56.7472C70.3628 55.4603 69.5393 54.0586 68.7386 52.8636C66.4739 55.1386 64.1635 57.4596 61.8301 59.8035C64.4837 62.5611 67.2517 65.4106 70.0197 68.2601C71.3693 69.6619 71.2092 70.604 69.5393 71.5922C67.6863 72.6952 65.7419 73.7293 64.0033 74.9932C61.9445 76.5098 61.2353 78.7159 61.8301 81.1977C62.3791 83.5187 64.1635 84.7596 66.3138 85.2881C68.7157 85.8626 70.9118 85.2422 72.3988 83.151C73.6569 81.3815 74.7092 79.4742 75.7844 77.5899C76.7223 75.9583 77.6831 75.7745 79.0099 77.0843C81.5491 79.6121 84.0654 82.1629 86.6046 84.7136C86.8563 84.9664 87.1536 85.2192 87.4739 85.5179C95.938 76.7856 104.311 68.0992 112.775 59.3669C109.938 56.5174 107.17 53.7598 104.425 51.0252C102.984 49.5775 103.121 48.6813 104.882 47.6472C106.712 46.5672 108.588 45.5331 110.327 44.3151C112.454 42.7985 113.049 40.5924 112.477 38.1106C111.974 35.8586 110.51 34.4568 108.268 33.9513C105.866 33.4227 103.739 34.0432 102.297 36.0654C101.016 37.8578 99.9412 39.8111 98.8432 41.7184C97.9282 43.304 96.8988 43.4879 95.5948 42.155C93.0785 39.6502 90.585 37.1225 88.0916 34.6177C87.817 34.3419 87.4968 34.0661 87.1765 33.7444C84.9576 35.9964 82.8072 38.1566 80.6798 40.3167C80.4968 40.4315 80.3824 40.5694 80.2223 40.7303ZM23.9249 41.075C25.3432 42.0631 26.9902 43.0513 28.4543 44.2692C31.6112 46.8659 32.5719 51.3699 30.9478 55.2076C29.3465 58.9992 25.4347 61.2742 21.4086 60.8836C17.9314 60.5389 15.5066 58.6545 13.6765 55.828C13.0589 54.8858 12.487 53.9207 11.9837 53.1164C9.67325 55.4374 7.38567 57.7124 5.02946 60.0793C7.63731 62.699 10.268 65.4566 13.036 68.0533C14.6602 69.5929 14.317 70.8338 12.5327 71.776C10.6112 72.7871 8.73535 73.8901 7.01966 75.2C4.66345 76.9924 4.11443 80.4394 5.73862 82.5765C8.84973 86.6899 14.0425 86.2992 16.2844 82.5995C17.2909 80.9449 18.2746 79.2674 19.2353 77.5669C20.1733 75.9353 21.134 75.7975 22.4837 77.1303C25.0001 79.6351 27.4935 82.1629 29.987 84.6677C30.2615 84.9434 30.5818 85.2192 30.902 85.5179C39.3661 76.8545 47.7615 68.2601 56.2255 59.5967C53.3889 56.7702 50.7125 53.9437 47.853 51.324C46.6406 50.198 46.6863 48.6813 48.3105 47.877C50.2321 46.8889 52.1079 45.7629 53.8465 44.476C55.9282 42.9823 56.6373 40.3626 55.8138 37.9268C55.1504 35.9045 53.7778 34.6406 51.719 34.204C49.4772 33.7214 47.3726 34.181 45.9543 36.0424C44.6046 37.8119 43.5066 39.8111 42.3857 41.7414C41.3105 43.6028 40.3955 43.7866 38.8628 42.247C36.1406 39.5124 33.4412 36.7778 30.7648 34.0662C28.4772 36.4331 26.1896 38.777 23.9249 41.075Z" fill="#364CC3"/>
</svg>
