<svg width="108" height="72" viewBox="0 0 108 72" fill="none" xmlns="http://www.w3.org/2000/svg">
<path d="M0.467957 55.7368C3.21845 55.7368 5.85064 55.7368 8.6307 55.7368C8.6307 55.1137 8.6307 54.6686 8.6307 54.1939C8.6307 38.9723 8.66028 23.7803 8.6307 8.55875C8.6307 5.41355 9.72498 2.86178 12.4163 1.25951C13.4219 0.666072 14.664 0.191328 15.847 0.131985C18.8933 -0.0163738 21.9691 0.0726378 25.1336 0.0726378C25.1336 1.08148 25.1336 2.06064 25.1336 3.12883C22.7972 3.12883 20.5199 3.24752 18.2426 3.09916C13.2149 2.7431 11.5882 5.56191 11.6474 9.65661C11.7657 24.4925 11.7065 39.3283 11.7065 54.1939C11.7065 54.6686 11.7065 55.1433 11.7065 55.6774C40.0987 55.6774 68.343 55.6774 96.7351 55.6774C96.7351 55.2324 96.7351 54.817 96.7351 54.4312C96.7351 39.2096 96.7056 24.0177 96.7647 8.79612C96.7943 5.23552 94.4578 3.03981 91.0863 3.09916C83.3967 3.24752 75.7072 3.12883 68.0176 3.12883C67.574 3.12883 67.1304 3.12883 66.598 3.12883C66.598 2.09032 66.598 1.14082 66.598 0.0429688C67.0121 0.0429688 67.3966 0.0429688 67.8106 0.0429688C75.648 0.0429688 83.4855 0.0429688 91.3229 0.0429688C96.4689 0.0429688 99.7814 3.33653 99.7814 8.4994C99.7814 23.721 99.7814 38.9129 99.7814 54.1345C99.7814 54.6093 99.7814 55.084 99.7814 55.7071C102.502 55.7071 105.134 55.7071 107.944 55.7071C107.944 57.1017 107.944 58.3479 107.944 59.5941C107.944 61.3744 107.974 63.1547 107.944 64.935C107.855 68.7923 104.868 71.8189 101.024 71.9375C100.757 71.9375 100.491 71.9375 100.255 71.9375C69.5555 71.9375 38.8861 71.9375 8.18707 71.9375C4.224 71.9375 1.29606 69.6825 0.674982 66.0922C0.467956 64.9647 0.556681 63.8075 0.556681 62.6503C0.467955 60.3656 0.467957 58.1105 0.467957 55.7368ZM104.78 58.9117C91.7665 58.9117 78.9013 58.9117 65.977 58.9117C65.977 59.6238 65.977 60.2766 65.977 60.8997C65.9474 63.125 64.4982 64.579 62.2801 64.579C56.8974 64.6086 51.4851 64.6086 46.1024 64.579C43.9435 64.579 42.4943 63.0954 42.4647 60.959C42.4647 60.2766 42.4647 59.5941 42.4647 58.9117C29.422 58.9117 16.5568 58.9117 3.6325 58.9117C3.6325 61.1074 3.54377 63.2141 3.66207 65.3207C3.69165 66.0329 4.13528 66.8043 4.57891 67.3978C5.37743 68.466 6.56044 68.8517 7.89132 68.8517C38.7974 68.8517 69.7034 68.8517 100.58 68.8517C100.787 68.8517 101.024 68.8517 101.231 68.822C102.975 68.644 104.632 67.2494 104.75 65.4988C104.868 63.3031 104.78 61.137 104.78 58.9117ZM62.7828 58.9117C56.9861 58.9117 51.3077 58.9117 45.5405 58.9117C45.5109 59.2677 45.4814 59.5644 45.4814 59.8612C45.4518 61.4931 45.4518 61.4931 47.0784 61.4931C51.633 61.4931 56.158 61.4931 60.7126 61.4931C63.1082 61.4931 63.1082 61.4931 62.7828 58.9117Z" fill="#364CC3"/>
<path d="M59.086 15.7097C59.0268 15.9174 58.9677 16.1844 58.9085 16.4811C56.7495 25.353 54.5905 34.2248 52.4316 43.0967C52.1062 44.4319 51.3964 44.9957 50.3909 44.7286C49.5036 44.4912 49.1487 43.6604 49.4149 42.4736C50.7458 37.014 52.0766 31.5544 53.4075 26.0948C54.2652 22.5342 55.1229 18.9736 56.0101 15.413C56.2467 14.4635 56.7791 13.87 57.8142 14.0184C58.6719 14.1667 59.0564 14.7602 59.086 15.7097Z" fill="#364CC3"/>
<path d="M40.424 29.329C42.376 31.2873 44.1209 33.0676 45.8954 34.8183C46.1616 35.0853 46.4278 35.3227 46.6644 35.6194C47.1967 36.3315 47.2854 37.0733 46.6052 37.7261C45.9546 38.3789 45.156 38.4085 44.5054 37.7854C42.0211 35.3523 39.5663 32.8896 37.1412 30.3972C36.5201 29.7741 36.6088 28.9433 37.2299 28.2905C39.6255 25.8574 42.0211 23.454 44.4462 21.0506C45.1265 20.3978 45.925 20.3681 46.6348 21.0506C47.2854 21.644 47.2559 22.5638 46.5165 23.3056C44.8603 24.9969 43.1745 26.6585 41.5183 28.3498C41.2225 28.6762 40.8676 28.9433 40.424 29.329Z" fill="#364CC3"/>
<path d="M67.8993 29.3289C67.1599 28.6168 66.4797 27.964 65.7995 27.3112C64.5277 26.0353 63.2264 24.7595 61.9547 23.4539C61.1562 22.6231 61.097 21.7626 61.7477 21.1098C62.3688 20.457 63.3447 20.4867 64.1137 21.2582C66.4206 23.5429 68.7274 25.8573 71.0047 28.1717C71.8328 29.0025 71.8032 29.863 70.9751 30.6938C68.6978 33.0082 66.391 35.3226 64.0841 37.6073C63.2856 38.3788 62.3983 38.4084 61.7477 37.6963C61.1266 37.0435 61.1858 36.1831 61.9251 35.4413C63.6405 33.6906 65.3559 31.9697 67.1008 30.2487C67.3078 30.0113 67.5444 29.7146 67.8993 29.3289Z" fill="#364CC3"/>
<path d="M55.7144 0.102295C55.7144 1.08146 55.7144 2.00129 55.7144 3.01012C54.2356 3.01012 52.7864 3.01012 51.2485 3.01012C51.2485 2.06063 51.2485 1.14081 51.2485 0.102295C52.6681 0.102295 54.1173 0.102295 55.7144 0.102295Z" fill="#364CC3"/>
<path d="M40.3649 3.03979C38.9157 3.03979 37.5257 3.03979 36.0765 3.03979C36.0765 2.06063 36.0765 1.11113 36.0765 0.102295C37.4665 0.102295 38.8861 0.102295 40.3649 0.102295C40.3649 1.02212 40.3649 1.97161 40.3649 3.03979Z" fill="#364CC3"/>
</svg>
