<svg width="36" height="29" viewBox="0 0 36 29" fill="none" xmlns="http://www.w3.org/2000/svg">
<g clip-path="url(#clip0_262_363)">
<path d="M0.608658 10.0481L0.181319 10.2423C0.103622 10.2811 0.051823 10.3329 0.0259237 10.4106C2.44593e-05 10.4883 2.44593e-05 10.566 0.0388734 10.6437L0.569809 11.7832C0.621607 11.8997 0.738154 11.9644 0.841751 11.9644C0.8806 11.9644 0.932399 11.9515 0.971248 11.9385L1.39859 11.7443C1.55398 11.6796 1.61873 11.4983 1.54103 11.3429L1.0101 10.2034C0.958298 10.0869 0.854701 10.0222 0.738154 10.0222C0.699305 10.0092 0.647506 10.0222 0.608658 10.0481Z" fill="white"/>
<mask id="mask0_262_363" style="mask-type:luminance" maskUnits="userSpaceOnUse" x="0" y="10" width="2" height="2">
<path d="M0.608658 10.0481L0.181319 10.2423C0.103622 10.2811 0.051823 10.3329 0.0259237 10.4106C2.44593e-05 10.4883 2.44593e-05 10.566 0.0388734 10.6437L0.569809 11.7832C0.621607 11.8997 0.738154 11.9644 0.841751 11.9644C0.8806 11.9644 0.932399 11.9515 0.971248 11.9385L1.39859 11.7443C1.55398 11.6796 1.61873 11.4983 1.54103 11.3429L1.0101 10.2034C0.958298 10.0869 0.854701 10.0222 0.738154 10.0222C0.699305 10.0092 0.647506 10.0222 0.608658 10.0481Z" fill="white"/>
</mask>
<g mask="url(#mask0_262_363)">
<path d="M1.6187 10.0093H0V11.9515H1.6187V10.0093Z" fill="white"/>
</g>
<path d="M2.2403 10.8118L1.98131 10.9283C1.92951 10.9542 1.89066 11.006 1.86476 11.0578C1.83886 11.1096 1.85181 11.1743 1.87771 11.2261L2.13671 11.7959C2.16261 11.8477 2.2144 11.8865 2.2662 11.9124C2.2921 11.9253 2.318 11.9253 2.3439 11.9253C2.38275 11.9253 2.40865 11.9124 2.43455 11.8994L2.69354 11.7829C2.74534 11.757 2.78419 11.7182 2.81009 11.6534C2.83599 11.6016 2.82304 11.5369 2.79714 11.4851L2.53815 10.9283C2.4993 10.8506 2.4216 10.7988 2.33095 10.7988C2.30505 10.7988 2.27915 10.7988 2.2403 10.8118Z" fill="white"/>
<mask id="mask1_262_363" style="mask-type:luminance" maskUnits="userSpaceOnUse" x="1" y="10" width="2" height="2">
<path d="M2.2403 10.8118L1.98131 10.9283C1.92951 10.9542 1.89066 11.006 1.86476 11.0578C1.83886 11.1096 1.85181 11.1743 1.87771 11.2261L2.13671 11.7959C2.16261 11.8477 2.2144 11.8865 2.2662 11.9124C2.2921 11.9253 2.318 11.9253 2.3439 11.9253C2.38275 11.9253 2.40865 11.9124 2.43455 11.8994L2.69354 11.7829C2.74534 11.757 2.78419 11.7182 2.81009 11.6534C2.83599 11.6016 2.82304 11.5369 2.79714 11.4851L2.53815 10.9283C2.4993 10.8506 2.4216 10.7988 2.33095 10.7988C2.30505 10.7988 2.27915 10.7988 2.2403 10.8118Z" fill="white"/>
</mask>
<g mask="url(#mask1_262_363)">
<path d="M2.83604 10.7988H1.85187V11.9253H2.83604V10.7988Z" fill="white"/>
</g>
<path d="M2.78418 8.37769L2.43454 8.54602C2.2662 8.62371 2.1885 8.83088 2.2662 9.01216L3.05613 10.7214C3.09498 10.799 3.15972 10.8638 3.25037 10.9026C3.28922 10.9156 3.32807 10.9285 3.36692 10.9285C3.41872 10.9285 3.47052 10.9156 3.50936 10.9026L3.84605 10.7472C4.0144 10.6696 4.0921 10.4624 4.0144 10.2811L3.22447 8.57191C3.18562 8.48127 3.12087 8.41653 3.03023 8.39064C2.99138 8.37769 2.95253 8.36474 2.91368 8.36474C2.87483 8.35179 2.82303 8.36474 2.78418 8.37769Z" fill="white"/>
<mask id="mask2_262_363" style="mask-type:luminance" maskUnits="userSpaceOnUse" x="2" y="8" width="3" height="3">
<path d="M2.78418 8.37769L2.43454 8.54602C2.2662 8.62371 2.1885 8.83088 2.2662 9.01216L3.05613 10.7214C3.09498 10.799 3.15972 10.8638 3.25037 10.9026C3.28922 10.9156 3.32807 10.9285 3.36692 10.9285C3.41872 10.9285 3.47052 10.9156 3.50936 10.9026L3.84605 10.7472C4.0144 10.6696 4.0921 10.4624 4.0144 10.2811L3.22447 8.57191C3.18562 8.48127 3.12087 8.41653 3.03023 8.39064C2.99138 8.37769 2.95253 8.36474 2.91368 8.36474C2.87483 8.35179 2.82303 8.36474 2.78418 8.37769Z" fill="white"/>
</mask>
<g mask="url(#mask2_262_363)">
<path d="M4.11797 8.35156H2.18848V10.9154H4.11797V8.35156Z" fill="white"/>
</g>
<path d="M4.80432 10.9026L4.31223 11.1357C4.24748 11.1616 4.19568 11.2134 4.16978 11.291C4.14388 11.3558 4.14388 11.4335 4.18273 11.4982L4.46763 12.1197C4.51942 12.2104 4.61007 12.2751 4.71367 12.2751C4.75252 12.2751 4.79137 12.2622 4.83022 12.2492L5.3223 12.0162C5.4518 11.9514 5.51655 11.796 5.4518 11.6665L5.16691 11.045C5.11511 10.9414 5.02446 10.8896 4.92086 10.8896C4.88201 10.8767 4.84316 10.8896 4.80432 10.9026Z" fill="white"/>
<mask id="mask3_262_363" style="mask-type:luminance" maskUnits="userSpaceOnUse" x="4" y="10" width="2" height="3">
<path d="M4.80432 10.9026L4.31223 11.1357C4.24748 11.1616 4.19568 11.2134 4.16978 11.291C4.14388 11.3558 4.14388 11.4335 4.18273 11.4982L4.46763 12.1197C4.51942 12.2104 4.61007 12.2751 4.71367 12.2751C4.75252 12.2751 4.79137 12.2622 4.83022 12.2492L5.3223 12.0162C5.4518 11.9514 5.51655 11.796 5.4518 11.6665L5.16691 11.045C5.11511 10.9414 5.02446 10.8896 4.92086 10.8896C4.88201 10.8767 4.84316 10.8896 4.80432 10.9026Z" fill="white"/>
</mask>
<g mask="url(#mask3_262_363)">
<path d="M5.51657 10.8765H4.15686V12.2619H5.51657V10.8765Z" fill="white"/>
</g>
<path d="M31.2993 1.21716C31.2993 1.21716 31.2993 1.23011 31.2863 1.23011L24.7079 15.331L20.9396 7.23818C20.9266 7.19934 20.9007 7.16049 20.8878 7.12165C20.4604 6.2541 19.5928 5.69732 18.6216 5.69732C17.6504 5.69732 16.7698 6.2541 16.3554 7.12165C16.3295 7.16049 16.3166 7.19934 16.3036 7.23818L9.82879 21.093L6.12519 13.1556C6.07339 13.0391 5.93095 12.9873 5.8144 13.052L5.56836 13.1945C5.45181 13.2463 5.30937 13.2074 5.24462 13.0909L5.03742 12.7024C4.94678 12.5211 4.73958 12.4564 4.55829 12.5341L4.35109 12.6247C4.33814 12.6377 4.31224 12.6377 4.28634 12.6247C4.26044 12.6247 4.2475 12.5988 4.2475 12.5859L4.00145 12.055C3.9626 11.9773 3.88491 11.9126 3.80721 11.8737C3.71656 11.8478 3.62591 11.8478 3.54821 11.8867L3.31512 11.9903C3.14678 12.0679 3.06908 12.2751 3.15973 12.4435L3.21152 12.56C3.22447 12.5859 3.21152 12.6247 3.18562 12.6377L2.93958 12.7542C2.88778 12.7801 2.81009 12.7801 2.74534 12.7672C2.68059 12.7413 2.64174 12.7024 2.60289 12.6377L2.4475 12.301C2.3957 12.1715 2.27915 12.0679 2.14965 12.0162C2.02016 11.9644 1.86476 11.9773 1.73526 12.0421L1.19138 12.301C1.02303 12.3787 0.945337 12.5859 1.02303 12.7672L6.18994 23.864L7.70505 27.1011V27.127L7.718 27.1529C8.06764 28.1758 9.01296 28.875 10.1007 28.875C11.0202 28.875 11.8748 28.3571 12.3022 27.5672C12.3151 27.5413 12.3281 27.5284 12.341 27.5025L12.3669 27.4507C12.3928 27.4118 12.4058 27.373 12.4187 27.3212L17.9741 15.4604L18 15.4345V15.4216C18.1295 15.2662 18.3238 15.1756 18.518 15.1756C18.7252 15.1756 18.9194 15.2792 19.0619 15.4475C19.1137 15.5122 19.1396 15.5899 19.1655 15.6676L22.1827 22.1548C22.5065 23.2295 23.5166 23.9805 24.6432 23.9805C25.7698 23.9805 26.8317 23.1906 27.1295 22.0512L35.6374 3.85864L35.8705 3.3666C35.9482 3.12058 36 2.82277 36 2.55085V2.48611C35.9612 1.10063 34.8475 0.0129583 33.4619 0.0129583C32.5813 9.83104e-06 31.7655 0.466153 31.2993 1.21716Z" fill="white"/>
<mask id="mask4_262_363" style="mask-type:luminance" maskUnits="userSpaceOnUse" x="0" y="0" width="36" height="29">
<path d="M31.2993 1.21716C31.2993 1.21716 31.2993 1.23011 31.2863 1.23011L24.7079 15.331L20.9396 7.23818C20.9266 7.19934 20.9007 7.16049 20.8878 7.12165C20.4604 6.2541 19.5928 5.69732 18.6216 5.69732C17.6504 5.69732 16.7698 6.2541 16.3554 7.12165C16.3295 7.16049 16.3166 7.19934 16.3036 7.23818L9.82879 21.093L6.12519 13.1556C6.07339 13.0391 5.93095 12.9873 5.8144 13.052L5.56836 13.1945C5.45181 13.2463 5.30937 13.2074 5.24462 13.0909L5.03742 12.7024C4.94678 12.5211 4.73958 12.4564 4.55829 12.5341L4.35109 12.6247C4.33814 12.6377 4.31224 12.6377 4.28634 12.6247C4.26044 12.6247 4.2475 12.5988 4.2475 12.5859L4.00145 12.055C3.9626 11.9773 3.88491 11.9126 3.80721 11.8737C3.71656 11.8478 3.62591 11.8478 3.54821 11.8867L3.31512 11.9903C3.14678 12.0679 3.06908 12.2751 3.15973 12.4435L3.21152 12.56C3.22447 12.5859 3.21152 12.6247 3.18562 12.6377L2.93958 12.7542C2.88778 12.7801 2.81009 12.7801 2.74534 12.7672C2.68059 12.7413 2.64174 12.7024 2.60289 12.6377L2.4475 12.301C2.3957 12.1715 2.27915 12.0679 2.14965 12.0162C2.02016 11.9644 1.86476 11.9773 1.73526 12.0421L1.19138 12.301C1.02303 12.3787 0.945337 12.5859 1.02303 12.7672L6.18994 23.864L7.70505 27.1011V27.127L7.718 27.1529C8.06764 28.1758 9.01296 28.875 10.1007 28.875C11.0202 28.875 11.8748 28.3571 12.3022 27.5672C12.3151 27.5413 12.3281 27.5284 12.341 27.5025L12.3669 27.4507C12.3928 27.4118 12.4058 27.373 12.4187 27.3212L17.9741 15.4604L18 15.4345V15.4216C18.1295 15.2662 18.3238 15.1756 18.518 15.1756C18.7252 15.1756 18.9194 15.2792 19.0619 15.4475C19.1137 15.5122 19.1396 15.5899 19.1655 15.6676L22.1827 22.1548C22.5065 23.2295 23.5166 23.9805 24.6432 23.9805C25.7698 23.9805 26.8317 23.1906 27.1295 22.0512L35.6374 3.85864L35.8705 3.3666C35.9482 3.12058 36 2.82277 36 2.55085V2.48611C35.9612 1.10063 34.8475 0.0129583 33.4619 0.0129583C32.5813 9.83104e-06 31.7655 0.466153 31.2993 1.21716Z" fill="white"/>
</mask>
<g mask="url(#mask4_262_363)">
<path d="M36 0H0.932373V28.875H36V0Z" fill="white"/>
</g>
<path d="M4.1698 19.5133L7.22591 26.0652L9.81584 21.093L7.8734 16.9106L4.1698 19.5133Z" fill="white"/>
<mask id="mask5_262_363" style="mask-type:luminance" maskUnits="userSpaceOnUse" x="4" y="16" width="6" height="11">
<path d="M4.1698 19.5133L7.22591 26.0652L9.81584 21.093L7.8734 16.9106L4.1698 19.5133Z" fill="white"/>
</mask>
<g mask="url(#mask5_262_363)">
<path d="M5.67197 14.4116L13.8691 19.3579L8.3137 28.5643L0.116577 23.618L5.67197 14.4116Z" fill="white"/>
</g>
<path d="M19.3727 16.0819L21.8072 21.2872L24.7209 15.305L22.377 10.2939L19.3727 16.0819Z" fill="white"/>
<mask id="mask6_262_363" style="mask-type:luminance" maskUnits="userSpaceOnUse" x="19" y="10" width="6" height="12">
<path d="M19.3727 16.0819L21.8072 21.2872L24.7209 15.305L22.377 10.2939L19.3727 16.0819Z" fill="white"/>
</mask>
<g mask="url(#mask6_262_363)">
<path d="M20.7971 7.92432L29.5899 13.2202L23.2964 23.6567L14.5036 18.3608L20.7971 7.92432Z" fill="white"/>
</g>
</g>
<defs>
<clipPath id="clip0_262_363">
<rect width="36" height="28.875" fill="white"/>
</clipPath>
</defs>
</svg>
