<svg width="116" height="102" viewBox="0 0 116 102" fill="none" xmlns="http://www.w3.org/2000/svg">
<g id="arrow copy 1">
<g id="Group">
<path id="Vector" d="M67.1855 67.2832C65.7986 66.6648 64.4378 66.1193 63.1318 65.4518C57.4807 62.6093 53.0297 58.4377 49.8125 52.9872C46.14 46.7777 44.6657 40.0569 45.3624 32.8667C45.6015 30.4253 46.131 28.0327 46.9354 25.6964C47.2351 24.826 48.0241 24.3931 48.8137 24.6649C49.6186 24.9292 49.9777 25.7447 49.6895 26.619C47.34 33.7398 47.5439 40.8046 50.4208 47.7265C53.1032 54.2099 57.5618 59.1399 63.7322 62.4815C65.0796 63.2145 66.5324 63.7532 67.9422 64.3795C68.0069 64.4146 68.0834 64.4154 68.1406 64.4351C68.2061 64.3936 68.2716 64.3521 68.3371 64.3106C68.2234 64.1946 68.0676 64.0896 68.0001 63.9511C66.6724 61.2649 65.3755 58.5637 64.0479 55.8775C63.7629 55.2926 63.7494 54.7371 64.1107 54.2082C64.6661 53.413 65.8754 53.4322 66.4452 54.2305C66.547 54.3809 66.6295 54.5502 66.7045 54.7041C68.5567 58.5061 70.4014 62.2927 72.2536 66.0947C72.7935 67.2029 72.549 67.913 71.4412 68.4539C67.6409 70.3096 63.8521 72.1692 60.0597 74.002C59.752 74.1522 59.3606 74.2481 59.0241 74.2219C58.3739 74.1773 57.9043 73.6826 57.7957 73.0687C57.6761 72.4126 57.9731 71.8103 58.6078 71.4908C60.0272 70.7882 61.4581 70.0895 62.889 69.3908C64.1814 68.7597 65.4738 68.1286 66.7662 67.4975C66.9161 67.4338 67.0431 67.3623 67.1855 67.2832Z" fill="#364CC3"/>
</g>
</g>
</svg>
