<svg width="86" height="86" viewBox="0 0 86 86" fill="none" xmlns="http://www.w3.org/2000/svg">
<path d="M62.2571 18.3503C63.0586 20.006 63.9135 21.6438 64.6793 23.3351C66.3713 27.0916 67.4756 31.026 68.1167 35.1029C68.277 36.0999 67.7962 36.8476 66.9413 36.9544C66.122 37.0613 65.5164 36.545 65.3383 35.548C64.3409 29.8154 62.4352 24.4389 59.4609 19.4185C59.2115 19.009 59.0156 18.7419 58.4279 18.7954C53.8328 19.2582 49.2377 19.6677 44.5001 20.1128C44.5001 20.3086 44.5001 20.6647 44.5001 21.0385C44.5001 22.9613 44.5001 24.884 44.5001 26.8067C44.5001 27.7859 43.9301 28.3912 43.093 28.3912C42.256 28.3912 41.7038 27.7859 41.686 26.7889C41.6682 24.5101 41.686 22.2313 41.686 19.8991C40.3324 19.8279 39.0323 19.8101 37.7499 19.7033C34.544 19.4363 31.3203 19.1336 28.1144 18.7954C27.402 18.7241 27.0102 18.8666 26.6362 19.5253C23.7331 24.5101 21.8274 29.851 20.8478 35.5302C20.7587 36.0109 20.2778 36.5806 19.8326 36.7942C19.512 36.9544 18.7462 36.7586 18.5146 36.456C18.2118 36.0821 18.0694 35.4234 18.1406 34.9249C19.0311 29.2635 20.919 23.9404 23.7331 18.9378C23.8399 18.7419 23.9468 18.5283 24.0893 18.2257C22.4863 17.8874 20.9368 17.5669 19.3873 17.2109C17.7131 16.8192 16.0568 16.4097 14.4004 15.9825C13.9373 15.8579 13.5989 15.8757 13.2427 16.2851C7.86396 22.534 4.60465 29.6552 3.57164 37.7912C3.07295 41.7079 3.19762 45.5889 3.8388 49.47C4.0169 50.5738 3.62507 51.2859 2.75236 51.4639C1.89746 51.6419 1.23847 51.09 1.06036 49.9685C-0.435714 40.9067 0.704156 32.201 4.80056 23.9582C9.8053 13.8639 17.6419 6.79611 28.1501 2.73702C45.0878 -3.81449 65.1068 1.74005 76.363 16.0003C81.4924 22.4984 84.5736 29.851 85.5176 38.076C85.9628 42.0105 85.8025 45.945 85.1613 49.8438C85.0011 50.8764 84.3243 51.4639 83.5228 51.3215C82.6501 51.1791 82.2048 50.4847 82.3829 49.3632C83.4694 42.5624 82.935 35.9219 80.6553 29.4238C78.9455 24.5635 76.363 20.2018 72.9434 16.3741C72.7475 16.1427 72.2666 15.9647 71.9816 16.0359C68.7579 16.7658 65.552 17.5491 62.2571 18.3503ZM37.5718 3.23551C29.3968 4.42831 22.2548 7.82869 16.039 13.4722C16.2705 13.5791 16.3952 13.6681 16.5377 13.6859C19.4051 14.2912 22.2548 14.8787 25.1223 15.5196C25.6566 15.6442 25.8881 15.4484 26.2087 15.0745C27.8651 13.0272 29.4324 10.8908 31.2491 9.00369C33.2082 6.97414 35.4167 5.17604 37.5718 3.23551ZM48.5252 3.2177C48.7033 3.43134 48.7568 3.52035 48.828 3.55596C53.2628 6.81391 57.0564 10.695 60.1911 15.1991C60.3336 15.395 60.7254 15.5374 60.9747 15.5196C62.079 15.3772 63.2011 15.1813 64.2875 14.9321C66.211 14.5226 68.1346 14.0597 70.2718 13.5613C63.9669 7.86429 56.8605 4.44611 48.5252 3.2177ZM41.6148 17.1753C41.6148 12.7245 41.6148 8.5052 41.6148 4.14346C36.5922 7.36581 32.4246 11.2647 28.8447 16.2495C33.2795 16.57 37.3937 16.8726 41.6148 17.1753ZM44.5891 4.19687C44.5891 8.55861 44.5891 12.7957 44.5891 17.1931C48.828 16.8726 52.96 16.57 57.3414 16.2495C53.7259 11.2647 49.576 7.36581 44.5891 4.19687Z" fill="#364CC3"/>
<path d="M55.0972 44.8948C54.9904 48.1884 54.741 51.4641 53.7793 54.6331C53.1915 56.5558 52.3188 58.3183 50.9474 59.7959C50.7693 59.974 50.6624 60.3122 50.6803 60.5615C50.8227 61.9679 51.0543 63.3743 51.1789 64.7986C51.2324 65.4039 51.4817 65.6353 52.0338 65.8312C55.5603 67.0418 59.1046 68.288 62.6489 69.5342C67.8852 71.4035 71.5185 76.5664 71.5363 82.1387C71.5363 82.6194 71.5363 83.0823 71.5363 83.563C71.5185 84.6846 71.002 85.3255 70.0937 85.3077C69.2209 85.2899 68.7401 84.6668 68.7222 83.5986C68.7044 82.6016 68.7757 81.569 68.5798 80.5899C67.7783 76.4774 65.4986 73.5577 61.4734 72.1334C58.0182 70.905 54.5451 69.7122 51.1077 68.466C50.52 68.2524 50.1637 68.3236 49.7185 68.7687C47.9552 70.4421 46.1564 72.08 44.3753 73.7179C43.4136 74.5903 42.7902 74.5902 41.8463 73.7357C40.0296 72.0622 38.2307 70.4065 36.4319 68.7153C36.0757 68.377 35.7907 68.2524 35.2742 68.4304C31.6231 69.73 27.9541 70.9762 24.3208 72.2937C20.3134 73.7535 17.4994 77.8304 17.4994 82.1031C17.4994 82.7262 17.5172 83.3493 17.4816 83.9724C17.4281 84.7558 16.8582 85.3077 16.1102 85.3255C15.3621 85.3433 14.7566 84.8092 14.6853 84.0259C13.9907 76.8868 18.2118 71.8308 22.4151 70.0505C25.425 68.7687 28.5775 67.8073 31.6765 66.7213C32.3711 66.4721 33.0657 66.1516 33.7781 66.0092C34.7221 65.8134 35.0605 65.2793 35.1139 64.3713C35.203 63.1251 35.3989 61.8967 35.5236 60.6683C35.5414 60.4012 35.4879 60.0452 35.3276 59.8671C33.2972 57.713 32.3711 55.0425 31.8546 52.2118C31.16 48.491 30.9463 44.7524 31.4093 40.9959C32.0327 35.8153 36.1291 31.9164 41.3654 31.5069C43.9657 31.3111 46.5304 31.3823 48.917 32.5751C52.3544 34.302 54.2602 37.1683 54.8301 40.9069C55.0082 42.2243 55.0082 43.5596 55.0972 44.8948ZM43.093 71.0296C44.8206 69.4274 46.4948 67.8785 48.169 66.3296C48.3115 66.205 48.4539 65.9736 48.4361 65.8134C48.2937 64.4959 48.1155 63.1963 47.9374 61.8611C47.6168 61.9501 47.4209 62.0391 47.2072 62.0569C45.8714 62.2706 44.5356 62.5376 43.182 62.6622C42.2915 62.7334 41.686 62.0569 41.686 61.2558C41.686 60.4724 42.2203 59.9384 43.1108 59.8671C43.4136 59.8493 43.6986 59.8315 44.0013 59.8315C47.2785 59.7781 49.4691 58.1046 50.52 55.1315C51.2324 53.1376 51.5886 51.019 51.9626 48.9361C52.1941 47.6009 52.1407 46.2122 52.2298 44.7346C49.3801 45.4823 46.7085 45.3755 44.0548 44.7702C41.8106 44.2539 39.709 43.4171 37.9102 41.9395C37.0553 41.2274 37.0018 40.1592 37.8033 39.5895C38.5335 39.0732 39.1569 39.3403 39.8159 39.8209C43.3067 42.2956 47.1538 42.9187 51.3036 42.0819C51.9092 41.9573 52.1229 41.6724 52.016 41.0315C51.4817 37.7202 48.8992 35.0319 45.6043 34.4978C44.3932 34.302 43.1286 34.2664 41.8997 34.3198C37.7855 34.48 34.6686 37.3285 34.2056 41.4232C33.7603 45.2509 34.0097 49.0429 34.9002 52.7993C35.4167 54.9891 36.2716 57.0009 38.0704 58.5319C38.3732 58.799 38.5335 59.4221 38.4979 59.8671C38.3376 61.6653 38.0526 63.4456 37.8745 65.2437C37.8389 65.6353 37.928 66.1694 38.1773 66.4187C39.7268 67.9497 41.3654 69.4452 43.093 71.0296Z" fill="#364CC3"/>
<path d="M0.294434 76.9757C0.454728 75.0886 0.419107 73.1658 0.828747 71.3499C1.48773 68.3412 3.39345 66.2049 6.1897 64.9052C7.84607 64.1219 9.53806 63.4098 11.2301 62.7155C11.6753 62.5196 11.9069 62.2882 11.8356 61.7897C11.8178 61.6829 11.8178 61.5583 11.8356 61.4336C11.9781 59.9916 11.7466 58.7454 10.6423 57.5882C9.41339 56.2886 8.98594 54.5439 8.98594 52.7458C9.00375 50.7696 8.9147 48.7757 9.14623 46.8174C9.53806 43.3992 12.9933 39.6071 18.1761 39.8742C21.8807 40.07 25.4784 43.1677 25.9237 47.1734C26.1908 49.5234 25.9949 51.9624 25.8346 54.348C25.7278 55.9147 24.8907 57.2677 23.8042 58.3893C23.3234 58.8878 23.2343 59.3863 23.1453 60.0272C22.8603 61.8965 23.4836 62.9825 25.3894 63.4632C26.4402 63.7124 27.4198 64.2821 28.3993 64.745C29.272 65.1367 29.5926 65.8488 29.3077 66.5965C29.0049 67.3799 28.2034 67.7003 27.3129 67.3443C25.7812 66.7211 24.2495 66.0802 22.7534 65.3681C22.2191 65.1189 21.8629 65.1367 21.4176 65.5283C20.5093 66.3295 19.5475 67.0772 18.6036 67.8249C17.7843 68.4658 17.25 68.4836 16.4485 67.8427C15.4511 67.0416 14.4894 66.2049 13.4742 65.4393C13.2248 65.2613 12.7618 65.1901 12.4768 65.2969C10.7848 65.9734 9.07499 66.6855 7.43643 67.4689C4.76486 68.7507 3.37564 70.9227 3.28659 73.878C3.21535 76.1568 3.26878 78.4355 3.26878 80.7143C3.26878 81.8715 2.77009 82.4946 1.87956 82.4946C0.989041 82.5124 0.472538 81.8715 0.454728 80.7321C0.454728 79.4859 0.454728 78.2397 0.454728 76.9935C0.383486 76.9757 0.347865 76.9757 0.294434 76.9757ZM23.1096 48.0636C22.8247 44.9658 20.5984 42.7405 17.6418 42.6871C14.5072 42.6158 12.174 44.9302 11.9425 47.4761C11.7822 49.292 11.7822 51.1435 11.8178 52.9772C11.8356 54.1878 12.1918 55.434 13.1358 56.1818C14.614 57.339 14.7921 58.781 14.6319 60.4367C14.5962 60.7215 14.6675 61.042 14.614 61.3268C14.4537 62.3238 14.8634 62.9469 15.647 63.5522C17.5171 64.9943 17.4281 64.9408 19.3338 63.5878C20.4559 62.7867 20.4381 61.8787 20.26 60.7393C19.9394 60.8283 19.69 60.8996 19.4229 60.953C18.4789 61.1488 17.7309 60.7571 17.535 59.9382C17.339 59.1549 17.8199 58.4605 18.7639 58.1935C21.952 57.2499 23.6618 54.4371 23.0918 51.0189C22.6109 50.9655 22.1122 50.9299 21.6136 50.8765C19.2269 50.6272 17.1075 49.6837 15.2374 48.1882C14.5606 47.6363 14.4716 46.853 14.9346 46.2299C15.3977 45.6068 16.1814 45.4821 16.9116 45.945C17.1609 46.1052 17.3925 46.3011 17.624 46.4613C19.2804 47.5295 21.0436 48.1882 23.1096 48.0636Z" fill="#364CC3"/>
<path d="M83.0062 77.1892C82.9349 75.6581 82.9884 74.1093 82.7568 72.596C82.4184 70.246 81.0292 68.5369 78.892 67.5043C77.1821 66.6854 75.4367 65.9555 73.6913 65.2434C73.4419 65.1365 72.9967 65.2078 72.7652 65.3858C71.75 66.1513 70.7882 66.9881 69.7908 67.7892C68.9359 68.4657 68.4372 68.4657 67.5645 67.7714C66.7096 67.0949 65.8191 66.4362 65.0176 65.6884C64.3942 65.1009 63.8777 65.1009 63.1475 65.457C61.8117 66.0979 60.4403 66.6498 59.0867 67.2195C58.0359 67.6646 57.2701 67.4331 56.9138 66.5964C56.5576 65.7774 56.9495 65.0653 58.0003 64.6024C59.4607 63.9615 60.939 63.3384 62.4173 62.7331C62.8625 62.5551 63.1119 62.3237 63.0406 61.8252C63.005 61.6471 63.0228 61.4691 63.0406 61.2911C63.1653 59.9024 62.9338 58.7274 61.8652 57.6059C60.654 56.3418 60.191 54.6149 60.191 52.8524C60.191 50.8407 60.0841 48.7934 60.3691 46.835C61.0281 42.4911 65.0888 39.5002 69.488 39.8918C73.7625 40.2835 77.1643 43.9153 77.2 48.2237C77.2178 50.2532 77.1821 52.3006 77.0219 54.3301C76.8972 55.8612 76.1135 57.2142 75.0449 58.3002C74.5284 58.8343 74.4393 59.404 74.3325 60.0983C74.0831 61.8786 74.6887 62.8577 76.4519 63.3562C77.7165 63.7123 78.9276 64.3354 80.1209 64.9407C83.7008 66.7566 85.6065 69.7119 85.749 73.7354C85.8202 76.0676 85.7668 78.4176 85.7668 80.7498C85.7668 81.8358 85.2681 82.4411 84.3954 82.4767C83.487 82.5123 82.9527 81.8714 82.9527 80.7498C82.9527 79.557 82.9527 78.382 82.9527 77.1892C82.9706 77.1892 82.9884 77.1892 83.0062 77.1892ZM71.4472 60.757C71.0019 60.8282 70.5745 60.9528 70.1292 60.9706C69.4168 61.0062 68.9537 60.5968 68.7756 59.9381C68.5975 59.2615 68.8647 58.7096 69.4702 58.3714C69.6661 58.2646 69.9155 58.2112 70.147 58.1399C72.4268 57.3922 73.9585 55.8968 74.2256 53.5112C74.4393 51.5884 74.4928 49.6123 74.3147 47.6718C74.0475 44.7877 71.6075 42.7225 68.7756 42.6691C65.9972 42.6157 63.4681 44.574 63.1297 47.4225C62.8803 49.5055 62.9872 51.6774 63.1831 53.7782C63.2544 54.6506 63.7531 55.7009 64.412 56.2528C65.7656 57.3744 65.9794 58.7096 65.8369 60.2763C65.8191 60.5077 65.8725 60.757 65.8191 60.9884C65.5697 62.2881 66.1219 63.107 67.1727 63.8547C68.74 64.9763 68.6509 64.9763 70.2361 63.8191C71.3225 63.0002 71.8924 62.1456 71.4472 60.757Z" fill="#364CC3"/>
</svg>
