<svg width="95" height="95" viewBox="0 0 95 95" fill="none" xmlns="http://www.w3.org/2000/svg">
<circle cx="47.5" cy="47.5" r="46" stroke="#364CC3" stroke-width="3"/>
<circle cx="47.5" cy="47.5" r="39.5" fill="#364CC3"/>
<path d="M61.7192 59.3433C61.7192 60.5092 61.7295 61.6138 61.7192 62.7183C61.7089 63.7615 61.5648 64.7842 61.1119 65.7456C60.4736 67.1058 59.4854 68.0467 57.9516 68.3126C56.6648 68.5274 55.5942 68.149 54.781 67.0956C54.5957 66.8604 54.4104 66.6251 54.1222 66.4308C54.1222 66.5945 54.1222 66.7581 54.1222 66.9115C54.1222 68.4763 54.1222 70.041 54.1222 71.6058C54.1222 72.5365 53.9163 72.7513 52.9795 72.7513C48.7281 72.7513 44.4869 72.7411 40.2354 72.7513C38.6192 72.7513 38.4545 72.7001 38.4545 71.1149C38.4545 69.632 38.4133 68.1592 38.4957 66.6763C38.5575 65.541 38.3104 64.4876 37.9295 63.4445C36.1795 58.5865 34.4192 53.7388 32.6898 48.8706C31.8148 46.4058 31.506 43.8797 32.0825 41.3024C32.8031 38.091 34.6766 35.6876 37.3839 33.8876C40.1942 32.0263 43.3339 31.116 46.6898 30.891C50.0457 30.666 53.2781 31.157 56.3045 32.6604C60.6178 34.7979 63.1295 38.2445 63.7678 43.0104C63.8398 43.5524 63.8295 44.0945 63.9222 44.6365C64.0354 45.332 63.7678 45.8535 63.3148 46.3445C62.9648 46.7229 62.6663 47.132 62.3472 47.5308C62.1207 47.807 62.1207 48.0831 62.2648 48.4206C63.6442 51.6217 65.003 54.8331 66.3619 58.0342C66.7222 58.8831 66.4236 59.3331 65.4869 59.3433C64.4266 59.3535 63.3663 59.3433 62.306 59.3433C62.131 59.3433 61.9457 59.3433 61.7192 59.3433ZM64.4575 57.8092C64.3648 57.574 64.3031 57.4206 64.2413 57.2672C63.0575 54.4854 61.8942 51.6933 60.6898 48.9217C60.4016 48.2467 60.4119 47.6229 60.7928 47.0297C61.1325 46.4876 61.4928 45.9354 61.9251 45.4649C62.2957 45.066 62.3986 44.6672 62.2957 44.1763C62.2751 44.074 62.2751 43.9717 62.2648 43.8695C61.8839 39.5433 59.8251 36.2297 55.9133 34.2865C50.653 31.6683 45.3104 31.8729 40.0501 34.3274C37.4869 35.524 35.4692 37.3649 34.306 39.9831C33.0913 42.724 33.1839 45.5263 34.1413 48.2876C35.6236 52.5831 37.1781 56.8683 38.7736 61.1331C39.6589 63.516 40.3281 65.899 39.9883 68.4865C39.8751 69.3661 39.9678 70.2763 39.9678 71.1967C44.2192 71.1967 48.3369 71.1967 52.5266 71.1967C52.5266 70.9717 52.5266 70.7774 52.5266 70.5729C52.5266 68.4967 52.5266 66.4206 52.5266 64.3445C52.5266 63.874 52.5986 63.4547 53.1236 63.2808C53.6178 63.1172 53.8957 63.4138 54.1633 63.741C54.7913 64.5285 55.4295 65.3058 56.0575 66.0933C56.4898 66.6251 57.0457 66.8501 57.7251 66.7888C58.5383 66.707 59.0633 66.2263 59.4545 65.5717C59.8972 64.8251 60.0825 63.9967 60.0928 63.1376C60.1133 61.7058 60.1031 60.2842 60.1031 58.8524C60.1031 58.0956 60.3604 57.8501 61.1119 57.8297C61.3898 57.8195 61.6575 57.8297 61.9354 57.8297C62.7383 57.8092 63.5619 57.8092 64.4575 57.8092Z" fill="white"/>
<path d="M46.8031 24.8978C46.4428 25.2762 46.0825 25.6648 45.7016 26.033C45.3413 26.3909 44.909 26.3909 44.5693 26.0637C44.2399 25.7466 44.2193 25.2864 44.5693 24.9284C45.434 24.0489 46.2987 23.1898 47.184 22.3307C47.534 21.9932 47.9664 21.9932 48.3266 22.3409C49.1913 23.1796 50.0561 24.0387 50.9002 24.8978C51.2605 25.2557 51.2502 25.7057 50.9413 26.033C50.6016 26.3807 50.1693 26.3807 49.7678 26.0023C49.3869 25.6444 49.0369 25.2557 48.6766 24.8875C48.6355 24.908 48.5943 24.9284 48.5531 24.9489C48.5531 25.5319 48.5531 26.125 48.5531 26.708C48.5531 27.5262 48.5634 28.3444 48.5531 29.1523C48.5428 29.7864 48.2649 30.083 47.7193 30.083C47.2046 30.0728 46.9266 29.7762 46.9266 29.1728C46.9163 27.9353 46.9266 26.6875 46.9266 25.45C46.9266 25.2864 46.9266 25.1228 46.9266 24.9591C46.8958 24.9489 46.8443 24.9284 46.8031 24.8978Z" fill="white"/>
<path d="M25.6178 44.9125C26.9972 44.9125 28.3869 44.9125 29.7663 44.9125C30.4251 44.9125 30.7648 45.1682 30.7854 45.6591C30.7957 46.2216 30.456 46.5284 29.7766 46.5284C28.3972 46.5284 27.0075 46.5284 25.4942 46.5284C25.9472 46.9887 26.328 47.3569 26.6883 47.7455C27.0589 48.1444 27.0486 48.5944 26.6986 48.9216C26.4001 49.1978 25.9472 49.2182 25.628 48.9114C24.7222 48.0319 23.8266 47.1523 22.9413 46.2421C22.6222 45.9148 22.6325 45.5159 22.9516 45.1887C23.8369 44.2887 24.7325 43.3989 25.6383 42.5194C25.9575 42.2125 26.4001 42.2432 26.7089 42.5296C27.028 42.8364 27.0795 43.2762 26.7501 43.6239C26.3692 44.0228 25.9369 44.3807 25.5251 44.7591C25.5354 44.8 25.5766 44.8512 25.6178 44.9125Z" fill="white"/>
<path d="M69.8927 46.5183C68.6883 46.5183 67.4736 46.5183 66.2692 46.5183C66.0427 46.5183 65.8265 46.5285 65.6 46.5183C65.0339 46.4978 64.6942 46.1706 64.7148 45.6796C64.7353 45.199 65.0545 44.9126 65.6103 44.9126C66.8765 44.9024 68.1427 44.9126 69.4089 44.9126C69.5736 44.9126 69.7383 44.9126 69.903 44.9126C69.9339 44.8717 69.9545 44.8206 69.9853 44.7796C69.625 44.4524 69.2648 44.1251 68.925 43.7876C68.4721 43.3376 68.4412 42.9081 68.8118 42.5399C69.1721 42.1819 69.6148 42.2331 70.0677 42.6728C70.8603 43.4501 71.6427 44.2274 72.425 45.0149C72.9398 45.5365 72.9398 45.8842 72.425 46.4058C71.6324 47.2035 70.8295 47.991 70.0265 48.7887C69.6148 49.1978 69.1515 49.2285 68.8118 48.891C68.4515 48.5433 68.4721 48.1137 68.8839 47.6842C69.0589 47.5001 69.2442 47.316 69.4295 47.1421C69.6045 46.9785 69.7898 46.8251 69.9648 46.6717C69.9339 46.6206 69.9133 46.5694 69.8927 46.5183Z" fill="white"/>
<path d="M65.6103 31.8217C65.4045 32.016 65.2809 32.1183 65.1574 32.2308C64.2515 33.1308 63.3456 34.0308 62.4295 34.9308C62.0074 35.3399 61.575 35.3706 61.2147 35.0228C60.875 34.6956 60.9059 34.2149 61.3074 33.816C62.1927 32.9263 63.0986 32.0365 63.9942 31.1467C64.1074 31.0342 64.2206 30.9013 64.4265 30.6865C63.8295 30.6865 63.3456 30.7172 62.8618 30.6763C62.5942 30.6456 62.2442 30.5433 62.1103 30.3592C61.9662 30.1547 61.925 29.7456 62.0383 29.5206C62.1515 29.3058 62.5118 29.1115 62.7692 29.1013C63.953 29.0603 65.1265 29.0808 66.3103 29.0808C66.8559 29.0808 67.1853 29.3876 67.1853 29.9297C67.2059 31.116 67.2059 32.3126 67.1853 33.499C67.175 34.041 66.8971 34.2967 66.3927 34.2967C65.8986 34.2967 65.6206 34.041 65.6 33.499C65.5897 32.9774 65.6103 32.4558 65.6103 31.8217Z" fill="white"/>
<path d="M31.1458 30.8602C32.0414 31.75 32.937 32.6295 33.8223 33.5193C33.987 33.6829 34.1723 33.8465 34.3164 34.0306C34.5943 34.3681 34.5737 34.7977 34.2752 35.084C33.987 35.3806 33.5443 35.4113 33.2149 35.125C32.9164 34.8693 32.6487 34.5829 32.3708 34.3068C31.5884 33.5193 30.8164 32.742 30.034 31.9545C29.9826 31.9647 29.9414 31.9852 29.8899 31.9954C29.8899 32.5068 29.8899 33.0181 29.8899 33.5295C29.8899 33.9488 29.7252 34.2556 29.2929 34.3579C28.7987 34.4704 28.3355 34.1636 28.3149 33.6522C28.284 32.3943 28.284 31.1363 28.3149 29.8784C28.3252 29.4284 28.6031 29.1625 29.0767 29.1522C30.3223 29.142 31.5679 29.142 32.8237 29.1625C33.287 29.1727 33.5546 29.4693 33.5649 29.8988C33.5855 30.359 33.3281 30.6863 32.8443 30.717C32.2987 30.7477 31.7531 30.7272 31.2179 30.7272C31.187 30.7784 31.1664 30.8193 31.1458 30.8602Z" fill="white"/>
<path d="M43.406 37.8148C44.003 37.5796 44.5486 37.375 45.0736 37.1296C45.2075 37.0682 45.3413 36.8943 45.3722 36.7409C45.4236 36.4443 45.3927 36.1273 45.4236 35.8307C45.4854 35.2784 45.7839 35.0125 46.3398 35.0023C47.2663 34.9921 48.1927 34.9921 49.1192 35.0023C49.706 35.0125 50.1383 35.3296 50.0766 35.8921C49.953 36.9046 50.4575 37.2728 51.3119 37.6103C51.9192 37.8557 52.2692 37.8148 52.7222 37.3853C53.6898 36.4853 53.8339 36.5057 54.7707 37.4466C55.2854 37.9682 55.8207 38.4796 56.3354 39.0012C56.8192 39.4921 56.881 39.8807 56.3766 40.3103C55.6457 40.9341 55.5325 41.4864 56.006 42.3659C56.3045 42.9284 56.5104 43.2864 57.1795 43.2046C57.3236 43.1841 57.4883 43.2353 57.6427 43.2455C58.106 43.2864 58.3633 43.5523 58.3633 44.0125C58.3736 44.9841 58.3736 45.9557 58.3633 46.9273C58.353 47.4284 58.0648 47.7046 57.5707 47.7557C57.1486 47.7966 56.7163 47.8273 56.2839 47.8682C56.0369 48.4307 55.7692 48.9932 55.5325 49.5659C55.4913 49.6682 55.5633 49.8523 55.6457 49.9546C55.8722 50.2307 56.1398 50.4762 56.3663 50.7523C56.7163 51.1614 56.7163 51.5398 56.3457 51.9284C55.6766 52.6137 54.9972 53.2887 54.3075 53.9534C53.8957 54.3523 53.4016 54.383 53.0413 53.9432C52.4236 53.2171 51.8574 53.1148 50.9722 53.5648C50.3339 53.8818 50.0766 54.1478 50.1075 54.8432C50.1486 55.7739 49.8501 56.0193 48.9133 56.0193C48.1104 56.0193 47.3075 56.0193 46.4942 56.0193C45.8045 56.0193 45.3927 55.7228 45.4442 55.058C45.5266 54.1273 45.1354 53.7489 44.2913 53.4421C43.6119 53.1966 43.2104 53.2171 42.7163 53.7387C41.9854 54.5057 41.728 54.4648 40.9869 53.7284C40.431 53.1762 39.8648 52.6239 39.3192 52.0716C38.8045 51.55 38.753 51.1 39.3089 50.6296C39.9883 50.0568 40.153 49.4943 39.628 48.7478C39.4633 48.5023 39.4016 48.1853 39.2986 47.8784C38.8663 47.8375 38.4236 47.8068 37.981 47.7659C37.456 47.7148 37.1883 47.4693 37.178 46.958C37.1575 45.9762 37.1575 44.9841 37.178 43.9921C37.1883 43.4807 37.5075 43.133 38.0222 43.1739C38.9486 43.2455 39.4633 42.9387 39.7413 41.9978C39.9883 41.1387 40.0913 41.1693 39.4736 40.5046C39.381 40.4023 39.278 40.3103 39.1957 40.208C38.8148 39.7784 38.8148 39.4 39.206 38.9909C39.8648 38.3159 40.5236 37.6512 41.203 37.0068C41.6457 36.5875 42.0883 36.5978 42.5619 37.0273C42.8398 37.2932 43.1177 37.5591 43.406 37.8148ZM56.7266 46.3137C56.7369 46.1296 56.7472 45.9966 56.7472 45.8637C56.7575 44.8512 56.7575 44.8409 55.7383 44.7898C55.2648 44.7693 54.9972 44.5341 54.8324 44.1046C54.5133 43.2659 54.1736 42.4375 53.803 41.6193C53.6177 41.2205 53.628 40.9137 53.9163 40.5966C54.1633 40.3205 54.4104 40.0546 54.6266 39.8091C54.2457 39.4103 53.906 39.0523 53.556 38.6841C53.3192 38.8989 53.103 39.0932 52.8869 39.2875C52.3207 39.7887 52.1972 39.7682 51.528 39.4512C50.8075 39.1034 50.0663 38.8171 49.3148 38.5512C48.8722 38.3978 48.6045 38.1728 48.5839 37.6921C48.5736 37.3546 48.553 37.0171 48.5325 36.6693C48.0075 36.6693 47.5236 36.6693 47.0398 36.6693C47.0089 37.0478 46.978 37.3853 46.9472 37.7228C46.9163 38.183 46.6383 38.3978 46.2266 38.5512C45.4133 38.858 44.6104 39.175 43.8177 39.5228C43.3957 39.7068 43.0354 39.7273 42.6854 39.4C42.4383 39.1648 42.181 38.9398 41.9648 38.7557C41.5942 39.1239 41.2339 39.4716 40.853 39.8398C41.0383 40.0341 41.2339 40.2489 41.4295 40.4637C41.9133 40.9955 41.9236 41.1489 41.5942 41.7728C41.3266 42.3046 40.9663 42.8262 40.8633 43.3887C40.678 44.4318 40.2251 44.9943 39.0927 44.8409C38.9898 44.8307 38.7633 45.025 38.753 45.1478C38.7119 45.5262 38.7324 45.925 38.7324 46.3239C39.103 46.3648 39.4222 46.4159 39.7516 46.4262C40.2869 46.4466 40.5133 46.7228 40.678 47.2034C40.9354 47.95 41.2339 48.6966 41.5839 49.4125C41.903 50.0773 41.9236 50.1898 41.4192 50.7625C41.2236 50.9773 41.0383 51.1921 40.8222 51.4375C41.2236 51.8057 41.6148 52.1637 42.006 52.5216C42.3251 52.2353 42.5722 51.9387 42.8913 51.7546C43.128 51.6216 43.5398 51.5193 43.7251 51.6318C44.5383 52.1739 45.4339 52.4705 46.3604 52.7159C46.7413 52.8182 46.9575 53.0943 46.9369 53.5137C46.9266 53.8614 46.9369 54.2091 46.9369 54.5671C47.5133 54.5671 47.9972 54.5671 48.5325 54.5671C48.5325 54.158 48.5222 53.7898 48.5325 53.4216C48.5427 53.0125 48.7795 52.7773 49.1398 52.6239C49.9942 52.2864 50.8486 51.9489 51.6927 51.5909C52.0839 51.4273 52.403 51.458 52.7119 51.7648C52.9692 52.0307 53.2575 52.2557 53.5045 52.4807C53.906 52.1125 54.2663 51.775 54.6369 51.4273C54.3898 51.1512 54.1633 50.8853 53.9266 50.65C53.5869 50.3023 53.5972 49.975 53.803 49.5455C54.1839 48.7375 54.503 47.8989 54.8119 47.0603C54.9457 46.7023 55.1207 46.4773 55.5325 46.4568C55.9339 46.4057 56.3045 46.3546 56.7266 46.3137Z" fill="white"/>
<path d="M47.7192 50.6192C44.9398 50.6192 42.7163 48.3897 42.7266 45.6181C42.7266 42.867 44.9913 40.6272 47.7604 40.6272C50.5398 40.6374 52.784 42.867 52.784 45.6283C52.7737 48.4306 50.5501 50.6192 47.7192 50.6192ZM51.1575 45.5977C51.1678 43.6852 49.6854 42.1715 47.781 42.1511C45.8766 42.1306 44.3531 43.634 44.3428 45.5363C44.3325 47.4488 45.8251 48.942 47.7398 48.9522C49.6237 48.9624 51.1472 47.4692 51.1575 45.5977Z" fill="white"/>
</svg>
