<svg width="95" height="95" viewBox="0 0 95 95" fill="none" xmlns="http://www.w3.org/2000/svg">
<circle cx="47.5" cy="47.5" r="39.5" fill="#364CC3"/>
<circle cx="47.5" cy="47.5" r="46" stroke="#364CC3" stroke-width="3"/>
<path d="M62.8331 64.2607C62.7645 64.2607 62.7449 64.2607 62.7253 64.2705C61.9213 64.3493 61.3723 64.6448 61.039 65.5114C60.686 66.447 59.7841 66.9001 58.5488 67.1463C58.4998 67.4023 58.4704 67.6781 58.4017 67.944C58.0096 69.4508 56.6664 70.4357 55.088 70.3569C54.7056 70.3372 54.4998 70.3963 54.3331 70.8001C53.5194 72.7698 51.0586 73.341 49.4409 71.972C49.2645 71.8243 49.0978 71.6766 48.9213 71.5289C48.7351 71.8243 48.5782 72.1198 48.3723 72.366C47.3233 73.6463 45.5782 73.8039 44.1174 72.7107C43.186 72.0213 42.2939 71.2728 41.4115 70.5342C38.7056 68.269 36.0586 65.9349 33.7351 63.2561C33.5488 63.0395 33.3625 62.8031 33.1076 62.5076C32.9409 63.0887 32.7841 63.591 32.637 64.0932C32.3527 65.0879 31.9409 65.3243 30.9311 65.0387C28.5978 64.3789 26.2645 63.719 23.9409 63.0493C23.0096 62.7834 22.7645 62.3402 23.039 61.3948C24.4802 56.3031 25.9115 51.2114 27.3429 46.1296C27.588 45.2728 28.0586 45.0167 28.9311 45.2629C31.3135 45.9326 33.686 46.6023 36.0684 47.2819C36.2939 47.3508 36.588 47.4395 36.6958 47.6167C36.9507 48.0107 37.2645 47.922 37.6272 47.8925C39.5096 47.7645 41.4017 47.666 43.2841 47.5379C43.5684 47.5183 43.8723 47.469 44.1174 47.341C46.4704 46.1395 48.9115 46.0114 51.3723 46.8289C53.1762 47.4198 54.9311 48.1683 56.6762 48.9069C57.088 49.0842 57.4213 49.0349 57.7841 48.9069C58.137 48.7887 58.5096 48.7592 58.6958 48.2963C58.7939 48.0501 59.1566 47.8334 59.4409 47.7546C61.8625 47.0455 64.2841 46.3561 66.7155 45.6766C67.5194 45.4501 67.99 45.716 68.2253 46.5334C69.0782 49.5372 69.9213 52.5311 70.7645 55.5349C71.3527 57.6425 71.9507 59.7501 72.539 61.8576C72.7939 62.7736 72.5488 63.2266 71.6468 63.4826C69.3135 64.1425 66.99 64.8023 64.6566 65.4622C63.6174 65.7576 63.2547 65.5508 62.9213 64.5069C62.9213 64.4182 62.8723 64.3493 62.8331 64.2607ZM41.0978 49.6751C39.6272 49.8425 38.2351 49.9804 36.8625 50.1675C36.7155 50.1872 36.5194 50.4039 36.4704 50.5614C35.6174 53.5258 34.7841 56.5001 33.9704 59.4743C33.9213 59.6614 33.9507 59.947 34.0586 60.1046C34.539 60.8039 35.0096 61.5228 35.5684 62.1531C38.4998 65.4523 41.8821 68.2592 45.3233 70.9872C45.4802 71.1152 45.686 71.2039 45.8821 71.2728C46.3233 71.4205 46.7449 71.194 46.8919 70.7607C47.039 70.3175 46.8919 69.9629 46.5782 69.6478C46.0586 69.1455 45.5488 68.6432 45.0292 68.1508C44.4704 67.6092 44.4017 66.9986 44.8429 66.516C45.2645 66.0531 45.8919 66.0629 46.4507 66.5455C47.8429 67.7569 49.2253 68.9781 50.6174 70.1993C51.186 70.6917 51.7939 70.7311 52.2155 70.2781C52.6468 69.8251 52.6076 69.1849 52.0488 68.6925C50.8821 67.6682 49.6762 66.6933 48.49 65.6986C47.9017 65.2061 47.7841 64.566 48.1958 64.0834C48.6174 63.5811 49.186 63.5713 49.7939 64.0539C50.4409 64.5758 51.088 65.0978 51.7253 65.6395C52.6468 66.4175 53.5586 67.2152 54.4802 67.9933C55.0194 68.4364 55.7155 68.3675 56.137 67.8554C56.5488 67.3629 56.49 66.7031 55.99 66.2304C55.7841 66.0432 55.5782 65.8561 55.3625 65.6789C54.1272 64.6349 52.8919 63.6008 51.6566 62.547C51.039 62.0152 51.0782 61.2076 51.7253 60.8039C52.1762 60.5183 52.588 60.5872 53.1076 61.0107C54.5488 62.222 55.9802 63.4236 57.4213 64.6349C58.039 65.1569 58.7351 65.1372 59.186 64.5758C59.6174 64.044 59.5096 63.3448 58.9115 62.8523C55.9409 60.4198 52.9507 58.0167 50.0194 55.5448C49.2645 54.9046 48.6076 54.5993 47.6076 54.9539C47.0096 55.1607 46.539 55.3773 46.137 55.8698C45.3919 56.8054 44.5292 57.6326 43.4213 58.1546C41.4017 59.1099 39.3919 58.0069 39.0684 55.7811C38.8429 54.1955 39.2841 52.7675 40.0096 51.3986C40.3135 50.8372 40.686 50.3251 41.0978 49.6751ZM62.2841 62.2023C61.2841 58.647 60.3037 55.1804 59.3331 51.7039C59.0586 50.7289 59.0488 50.6895 58.0782 51.044C57.2939 51.3296 56.6468 51.2016 55.8919 50.8667C54.2449 50.1281 52.5684 49.4486 50.8723 48.8675C48.3233 48.0008 45.9115 48.3554 43.7939 50.0789C42.2449 51.3395 41.2155 52.9349 41.1272 55.0031C41.1076 55.4955 41.137 56.0175 41.637 56.2933C42.137 56.569 42.588 56.2834 42.9311 55.9879C43.588 55.4266 44.2155 54.8357 44.7841 54.1857C45.3429 53.5357 45.9998 53.122 46.8331 52.9645C47.3919 52.8561 47.9507 52.7379 48.4802 52.541C49.0488 52.3243 49.4998 52.4129 49.9606 52.797C53.0488 55.3379 56.1566 57.8592 59.2351 60.4099C59.9213 60.9811 60.5096 61.6508 61.1566 62.2713C61.2351 62.3501 61.3821 62.3895 61.49 62.3796C61.7449 62.3402 61.9998 62.2713 62.2841 62.2023ZM30.8233 62.8129C32.1174 58.2236 33.4017 53.6736 34.6958 49.094C32.8233 48.5622 30.9998 48.0501 29.1468 47.5182C27.8527 52.1076 26.5684 56.6576 25.2841 61.2273C27.137 61.7592 28.9507 62.2713 30.8233 62.8129ZM60.9017 49.5175C62.1958 54.1167 63.4802 58.647 64.7743 63.2266C66.6468 62.6948 68.4704 62.1826 70.3233 61.6508C69.0292 57.0516 67.7449 52.5016 66.4507 47.9319C64.588 48.4637 62.7645 48.9857 60.9017 49.5175Z" fill="white"/>
<path d="M58.2644 33.9274C58.2546 39.6395 53.6859 44.2092 47.9997 44.2092C42.333 44.1994 37.7154 39.5706 37.7448 33.9077C37.7644 28.2054 42.3918 23.5668 48.0585 23.5865C53.7056 23.6062 58.284 28.235 58.2644 33.9274ZM47.7154 42.0918C52.0683 42.2592 55.9703 38.9009 56.1663 34.2327C56.3428 29.9486 53.1859 26.1077 48.6565 25.7335C44.1271 25.3592 40.1467 28.8259 39.8624 33.3266C39.5781 38.0539 43.1761 41.9244 47.7154 42.0918Z" fill="white"/>
<path d="M46.9117 39.7087C45.8431 39.4231 44.8823 38.9701 44.049 38.2511C43.7058 37.9557 43.5784 37.5814 43.6862 37.1481C43.7843 36.7246 44.0784 36.4094 44.4902 36.3996C44.8137 36.3897 45.196 36.5178 45.4607 36.7049C46.2745 37.286 47.1372 37.6996 48.1568 37.7094C48.7255 37.7193 49.1568 37.4534 49.4804 37.0102C49.9509 36.3602 49.8627 35.7299 49.147 35.3655C48.3333 34.9617 47.4509 34.7155 46.6176 34.3413C46.0882 34.1049 45.549 33.8291 45.1078 33.4648C43.7647 32.3519 43.6568 30.4807 44.8137 29.0329C45.2745 28.4617 45.8431 28.0284 46.549 27.8019C46.8137 27.7132 46.9019 27.6049 46.9019 27.3291C46.9019 26.6791 47.3235 26.236 47.8921 26.2163C48.4902 26.1867 48.9607 26.6201 48.9804 27.2897C48.9902 27.6246 49.098 27.7625 49.4117 27.8708C50.1568 28.1269 50.7549 28.5898 51.2255 29.2299C51.6176 29.7617 51.5686 30.3822 51.098 30.7564C50.6372 31.1208 50.0294 31.0716 49.6274 30.5693C49.1078 29.9193 48.4607 29.6829 47.6568 29.7223C46.9117 29.7617 46.1666 30.3822 46.147 31.1307C46.1372 31.3867 46.3333 31.7511 46.5392 31.8988C46.9607 32.1943 47.4509 32.3913 47.9313 32.5882C48.549 32.8443 49.196 33.0117 49.7941 33.3072C51.049 33.9178 51.9607 34.8534 51.8529 36.3504C51.7451 37.8966 50.9019 38.9898 49.4509 39.5807C49.2156 39.6791 48.9902 39.7185 48.9804 40.0829C48.9607 40.792 48.4804 41.2451 47.8921 41.2155C47.2843 41.186 46.8921 40.7132 46.8823 40.0041C46.9117 39.9352 46.9117 39.8564 46.9117 39.7087Z" fill="white"/>
</svg>
