<svg width="84" height="95" viewBox="0 0 84 95" fill="none" xmlns="http://www.w3.org/2000/svg">
<path d="M78.217 15.1423L78.074 15.7168C77.931 16.291 77.8111 16.7257 77.6916 17.1345C77.3964 18.7391 77.069 20.3279 76.7431 21.9095C76.0524 25.2613 75.3683 28.5811 75.0115 31.9511L75.0114 31.9518C74.5451 36.2972 74.4429 40.6965 74.3403 45.1102C74.3114 46.3536 74.2825 47.5981 74.2454 48.8429L74.2454 48.8446C74.0029 56.1479 72.3043 63.0601 68.4806 69.3448C62.4298 79.3236 53.4436 85.6305 42.7531 89.6631C42.1341 89.9202 41.3489 89.8088 40.8175 89.6221C40.8174 89.622 40.8173 89.622 40.8172 89.622L40.9829 89.1502M78.217 15.1423L28.2766 82.5424C32.1917 85.3399 36.4432 87.5586 40.9829 89.1502M78.217 15.1423L77.6267 15.0974C76.9484 15.0458 76.2879 14.9989 75.6382 14.9528C74.7588 14.8904 73.8991 14.8294 73.0418 14.76M78.217 15.1423L73.0418 14.76M40.9829 89.1502C41.4633 89.3191 42.1119 89.3914 42.5682 89.1985C53.1849 85.1952 62.0721 78.9491 68.053 69.0856C71.8241 62.8877 73.5055 56.0629 73.7457 48.828M40.9829 89.1502L73.7457 48.828M73.7457 48.828C73.7825 47.5908 73.8113 46.3512 73.8401 45.1109C73.9427 40.6939 74.0455 36.2668 74.5143 31.8985L73.7457 48.828ZM73.0418 14.76C62.4426 13.8731 52.3924 10.9972 42.8882 6.25001C42.6253 6.11817 42.2942 6.03913 41.9847 6.01744C41.6882 5.99668 41.3174 6.02178 41.0223 6.19105L41.0213 6.19167C34.812 9.77458 28.0731 11.9759 21.0365 13.1493C16.9381 13.8265 12.7969 14.2393 8.64123 14.6535C7.04434 14.8127 5.44531 14.9721 3.84576 15.1468C3.37666 15.1914 2.88275 15.1917 2.38708 15.1468C1.38118 15.0277 0.687253 14.2623 0.6492 13.3093C0.610973 12.3284 1.20675 11.55 2.22307 11.3342C2.53865 11.2675 2.874 11.2536 3.24045 11.2384C3.34377 11.2341 3.44957 11.2297 3.55809 11.224C12.7626 10.9092 21.8725 9.69871 30.6077 6.5405C33.1628 5.62422 35.6043 4.3732 38.0118 3.13956C38.8066 2.73232 39.5977 2.32697 40.3879 1.9362L40.3906 1.93485C40.9208 1.66867 41.3687 1.50899 41.7866 1.4771C42.1874 1.4465 42.5916 1.53117 43.0452 1.81392C49.945 6.25262 57.6327 8.48741 65.5751 9.69937C69.2955 10.274 73.0623 10.5831 76.8088 10.8906C78.114 10.9977 79.4167 11.1046 80.7142 11.2224L80.7154 11.2226C81.7184 11.3111 82.3912 11.6739 82.7384 12.1432C83.0728 12.5954 83.1762 13.243 82.841 14.0845L82.84 14.0869C80.583 19.8374 79.4951 25.8453 78.9881 31.905L78.9881 31.9053C78.6273 36.2525 78.4501 40.6172 78.2737 44.9644C78.203 46.7062 78.1324 48.4451 78.0502 50.179L78.0501 50.1794C77.385 64.4428 71.0271 75.696 59.9601 84.4657L59.9596 84.4661C55.0574 88.3606 49.6045 91.3263 43.7397 93.5287C42.4048 94.02 41.2575 94.039 39.9376 93.531C28.6755 89.1949 19.2334 82.5724 12.5291 72.38L12.5289 72.3797C7.57131 64.8539 5.47778 56.4408 5.50155 47.4549C5.52564 39.592 4.94736 31.7727 3.57247 24.0226C3.38891 22.9622 3.44738 22.1513 4.20681 21.5349C5.37768 20.6335 7.00041 21.2203 7.27109 22.7471C7.33549 23.1293 7.40043 23.5111 7.46529 23.8924C7.95876 26.7931 8.44789 29.6682 8.65825 32.5616L73.0418 14.76Z" fill="#364CC3" stroke="white"/>
<path d="M54.2734 50.7464L54.2704 50.7584C52.8224 56.5236 47.6286 60.5917 41.7725 60.5419C36.4752 60.5165 31.7738 57.2786 29.8986 52.3086L54.2734 50.7464ZM54.2734 50.7464L54.2758 50.7343M54.2734 50.7464L54.2758 50.7343M54.2758 50.7343C54.3252 50.4864 54.3677 50.277 54.4281 50.0948L54.4282 50.0948M54.2758 50.7343L54.4282 50.0948M54.4282 50.0948L54.4297 50.09M54.4282 50.0948L54.4297 50.09M54.4297 50.09C54.6278 49.4723 54.9637 49.05 55.3563 48.8126C55.7449 48.5776 56.2301 48.4983 56.7852 48.6374C57.3302 48.7769 57.7383 49.0829 57.9797 49.4777C58.2204 49.8712 58.3153 50.3855 58.1749 50.9798L58.174 50.9833M54.4297 50.09L58.174 50.9833M58.174 50.9833C56.6535 57.6302 52.6076 61.8801 46.1256 63.8069C36.5578 66.635 26.27 59.6599 25.2914 49.6715L25.2914 49.6711M58.174 50.9833L25.2914 49.6711M25.2914 49.6711C24.31 39.7235 31.1647 31.584 41.0857 30.9746L41.0859 30.9746M25.2914 49.6711L41.0859 30.9746M41.0859 30.9746C42.5093 30.8866 43.9828 31.1339 45.5069 31.3897C45.5799 31.402 45.653 31.4142 45.7262 31.4265C46.8043 31.6176 47.471 32.7092 47.2452 33.6915L47.2452 33.6915M41.0859 30.9746L47.2452 33.6915M47.2452 33.6915L47.2439 33.6974M47.2452 33.6915L47.2439 33.6974M47.2439 33.6974C47.0128 34.7612 46.0944 35.4043 44.9502 35.1706C40.5907 34.2754 36.6277 35.0713 33.2505 38.1104L33.2499 38.111M47.2439 33.6974L33.2499 38.111M33.2499 38.111C29.2734 41.7017 28.0027 47.2986 29.8985 52.3083L33.2499 38.111Z" fill="#364CC3" stroke="white"/>
<path d="M39.8367 50.4169L40.1918 50.9928L40.6381 50.4843C42.7751 48.0494 44.8641 45.6868 46.9538 43.3234L46.9541 43.3231L46.9542 43.323C48.372 41.7185 49.7838 40.108 51.1948 38.4985L51.1949 38.4983C52.6062 36.8884 54.0167 35.2794 55.4331 33.6766L55.4332 33.6764C55.8457 33.2092 56.2627 32.9738 56.6581 32.8993C57.0506 32.8255 57.4777 32.8995 57.9341 33.1533C58.7081 33.6019 59.0892 34.4974 58.8113 35.3343L58.809 35.3414L58.8068 35.3487C58.6919 35.7331 58.4314 36.128 58.1168 36.4891C52.6884 42.6869 47.2608 48.8838 41.8093 55.0565C40.9836 55.989 40.292 56.2977 39.7386 56.2491C39.1845 56.2005 38.5556 55.775 37.9016 54.7151C37.2176 53.6067 36.5396 52.4982 35.8609 51.3887C35.1827 50.2799 34.5038 49.17 33.8189 48.0601C33.4062 47.3837 33.2782 46.7776 33.35 46.2869C33.4202 45.8073 33.6889 45.3793 34.1927 45.0517C34.7174 44.714 35.2311 44.6513 35.7027 44.7986C36.1868 44.9498 36.6889 45.3425 37.1248 46.0313C37.8444 47.1834 38.5639 48.3512 39.3099 49.562C39.4839 49.8445 39.6595 50.1293 39.8367 50.4169Z" fill="#364CC3" stroke="white"/>
</svg>
