<svg width="14" height="20" viewBox="0 0 14 20" fill="none" xmlns="http://www.w3.org/2000/svg">
<path d="M6.96184 19.9182C6.7426 19.8305 6.60618 19.6551 6.48438 19.4602C4.70606 16.5906 2.93261 13.7209 1.14454 10.8561C0.267563 9.44805 -0.13195 7.93282 0.0385741 6.28118C0.18961 4.81467 0.754774 3.52356 1.7292 2.40785C2.53309 1.48702 3.51239 0.814669 4.66708 0.405412C5.78279 0.0107711 6.92774 -0.101288 8.09217 0.0935965C10.0751 0.420028 11.6488 1.41881 12.7791 3.06558C13.8364 4.60517 14.1969 6.32503 13.8997 8.17156C13.7536 9.07777 13.4223 9.91577 12.9497 10.7002C11.2006 13.6234 9.44662 16.5467 7.7024 19.47C7.58547 19.6649 7.45393 19.8305 7.23955 19.9133C7.14211 19.9182 7.05441 19.9182 6.96184 19.9182ZM7.08852 18.1984C7.11775 18.1643 7.13237 18.1448 7.14698 18.1204C8.76939 15.4115 10.4016 12.7026 12.0142 9.98398C12.8912 8.50286 13.0812 6.91455 12.5696 5.26778C11.6927 2.42734 8.84735 0.726971 5.92408 1.2629C3.43931 1.71601 1.49533 3.7964 1.20301 6.32015C1.04223 7.69896 1.34917 8.97058 2.07999 10.1448C3.71214 12.7757 5.3443 15.4066 6.97646 18.0376C7.01056 18.0912 7.04954 18.1399 7.08852 18.1984Z" fill="black"/>
<path d="M6.99039 10.5055C5.05616 10.5006 3.49221 8.92694 3.49708 6.99759C3.50195 5.0731 5.08539 3.49941 7.005 3.50428C8.92948 3.50916 10.5032 5.09259 10.4983 7.01707C10.4934 8.94643 8.91974 10.5104 6.99039 10.5055ZM4.66152 6.99759C4.65664 8.2887 5.6944 9.3362 6.98551 9.34107C8.28637 9.35082 9.33387 8.30331 9.33387 7.00246C9.33387 5.71622 8.28637 4.66385 7.00013 4.66385C5.71389 4.66385 4.66639 5.70648 4.66152 6.99759Z" fill="black"/>
</svg>
