<svg width="19" height="19" viewBox="0 0 19 19" fill="none" xmlns="http://www.w3.org/2000/svg">
<g clip-path="url(#clip0_169_2114)">
<path d="M19 9.55771C19 4.311 14.7467 0.0577087 9.5 0.0577087C4.25329 0.0577087 0 4.311 0 9.55771C0 14.2994 3.47403 18.2296 8.01562 18.9423V12.3038H5.60352V9.55771H8.01562V7.46474C8.01562 5.0838 9.43391 3.76865 11.6039 3.76865C12.6433 3.76865 13.7305 3.95419 13.7305 3.95419V6.29208H12.5325C11.3524 6.29208 10.9844 7.02436 10.9844 7.77564V9.55771H13.6191L13.1979 12.3038H10.9844V18.9423C15.526 18.2296 19 14.2994 19 9.55771Z" fill="#C0BCBC"/>
</g>
<defs>
<clipPath id="clip0_169_2114">
<rect width="19" height="19" fill="white"/>
</clipPath>
</defs>
</svg>
