<svg width="36" height="36" viewBox="0 0 36 36" fill="none" xmlns="http://www.w3.org/2000/svg">
<g id="1161954_instagram_icon 1">
<g id="Group">
<path id="Vector" d="M17.8413 21.8412C19.3841 21.8412 20.6349 20.5904 20.6349 19.0476C20.6349 17.5047 19.3841 16.2539 17.8413 16.2539C16.2984 16.2539 15.0476 17.5047 15.0476 19.0476C15.0476 20.5904 16.2984 21.8412 17.8413 21.8412Z" fill="white"/>
<path id="Vector_2" d="M21.3333 12.1904H14.3492C13.3333 12.1904 12.4444 12.5079 11.873 13.0793C11.3016 13.6507 10.9841 14.5396 10.9841 15.5555V22.5396C10.9841 23.5555 11.3016 24.4444 11.9365 25.0793C12.5714 25.6507 13.3968 25.9682 14.4127 25.9682H21.3333C22.3492 25.9682 23.2381 25.6507 23.8095 25.0793C24.4444 24.5079 24.7619 23.619 24.7619 22.6031V15.619C24.7619 14.6031 24.4444 13.7777 23.873 13.1428C23.2381 12.5079 22.4127 12.1904 21.3333 12.1904ZM17.8413 23.365C15.4286 23.365 13.5238 21.3968 13.5238 19.0476C13.5238 16.6349 15.4921 14.7301 17.8413 14.7301C20.1905 14.7301 22.2222 16.6349 22.2222 19.0476C22.2222 21.4603 20.254 23.365 17.8413 23.365ZM22.3492 15.5555C21.7778 15.5555 21.3333 15.1111 21.3333 14.5396C21.3333 13.9682 21.7778 13.5238 22.3492 13.5238C22.9206 13.5238 23.3651 13.9682 23.3651 14.5396C23.3651 15.1111 22.9206 15.5555 22.3492 15.5555Z" fill="white"/>
<path id="Vector_3" d="M17.9683 3.30176C9.33337 3.30176 2.34924 10.2859 2.34924 18.9208C2.34924 27.5557 9.33337 34.5399 17.9683 34.5399C26.6032 34.5399 33.5873 27.5557 33.5873 18.9208C33.6508 10.2859 26.6032 3.30176 17.9683 3.30176ZM26.2857 22.6033C26.2857 24.0637 25.7778 25.3335 24.8889 26.2224C24 27.1113 22.7302 27.5557 21.3334 27.5557H14.4127C13.0159 27.5557 11.7461 27.1113 10.8572 26.2224C9.9048 25.3335 9.46035 24.0637 9.46035 22.6033V15.6192C9.46035 12.6986 11.4286 10.6668 14.4127 10.6668H21.3969C22.8572 10.6668 24.0635 11.1748 24.9524 12.0637C25.8413 12.9526 26.2857 14.1589 26.2857 15.6192V22.6033Z" fill="white"/>
</g>
</g>
</svg>
