<svg width="95" height="95" viewBox="0 0 95 95" fill="none" xmlns="http://www.w3.org/2000/svg">
<circle cx="47.5" cy="47.5" r="46" stroke="#364CC3" stroke-width="3"/>
<circle cx="47.5" cy="47.5" r="39.5" fill="#364CC3"/>
<path d="M77.9896 39.1605C77.0352 40.0195 76.0569 40.8546 75.1263 41.7375C74.995 41.8687 74.995 42.2147 75.0428 42.4295C75.2336 43.3959 75.4603 44.3622 75.6751 45.3286C75.7109 45.5195 75.7347 45.7104 75.7825 46.0206C74.7087 45.3644 73.7065 44.7798 72.7401 44.1475C72.4061 43.9327 72.1794 43.9208 71.8454 44.1475C70.879 44.7798 69.8768 45.3644 68.7553 46.0564C69.0178 44.8156 69.2206 43.718 69.495 42.6323C69.6263 42.1193 69.5666 41.7614 69.1371 41.4034C68.29 40.6995 67.4907 39.924 66.572 39.0889C67.4907 38.9935 68.302 38.8861 69.1132 38.8264C70.6404 38.7191 70.6404 38.731 71.213 37.347C71.5471 36.5358 71.8931 35.7245 72.2868 34.77C72.7998 35.9869 73.2651 37.0726 73.6946 38.1583C73.8378 38.5282 74.0167 38.7071 74.4582 38.731C75.6393 38.8026 76.8204 38.9338 78.0015 39.0531C77.9896 39.0889 77.9896 39.1247 77.9896 39.1605Z" fill="white"/>
<path d="M47.5067 34.9846C58.5425 34.9966 67.5143 43.9445 67.5024 54.9326C67.4905 66.0639 58.5545 74.9999 47.4351 74.9999C36.4112 74.9999 27.4752 65.9684 27.4991 54.861C27.5229 43.9087 36.5186 34.9727 47.5067 34.9846ZM61.7877 65.9804C67.0968 59.4663 67.2519 48.5497 59.6521 41.5942C52.2074 34.7818 40.4796 35.4857 33.87 43.1213C27.3559 50.6495 28.7518 60.7786 33.2735 65.9804C34.5501 63.6181 36.4112 61.8524 38.7496 60.5997C42.2811 58.7027 46.0631 58.2493 50.0002 58.6908C55.0469 59.2634 59.1033 61.4587 61.7877 65.9804ZM47.5067 60.4565C45.3711 60.4565 43.2713 60.7548 41.2789 61.5422C38.4752 62.6398 36.2203 64.3817 34.8483 67.1496C34.6694 67.5194 34.6694 67.7461 35.0034 68.0563C38.2008 71.0509 41.9709 72.757 46.3614 73.0314C51.6466 73.3535 56.2041 71.6116 60.0816 68.0205C60.3679 67.7461 60.3679 67.5313 60.2128 67.2092C59.497 65.706 58.459 64.4771 57.1586 63.463C54.3072 61.232 51.0143 60.4804 47.5067 60.4565Z" fill="white"/>
<path d="M29.205 35.1041C29.4198 34.0542 29.5272 33.1355 29.8254 32.2646C30.1595 31.2744 29.9447 30.6182 29.1096 30.0097C28.3937 29.4848 27.7853 28.8286 27.0217 28.1366C27.9165 28.0412 28.7159 27.8622 29.5033 27.898C30.7321 27.9577 31.4241 27.5043 31.7343 26.2874C31.9252 25.5119 32.3428 24.7841 32.6649 24.0444C32.6768 24.0206 32.7246 24.0086 32.8081 23.949C33.2734 25.0705 33.7387 26.1681 34.192 27.2776C34.3233 27.6117 34.5022 27.7548 34.8721 27.7787C36.0293 27.8622 37.1866 28.0054 38.4751 28.1366C37.6042 28.936 36.8406 29.6757 36.0293 30.3557C35.5402 30.7614 35.3851 31.1312 35.564 31.7755C35.8623 32.8134 36.0293 33.8872 36.2918 35.116C35.3374 34.5314 34.4545 34.0781 33.6909 33.4935C33.0109 32.9685 32.4859 33.0162 31.8178 33.5054C31.0185 34.0542 30.1714 34.5076 29.205 35.1041Z" fill="white"/>
<path d="M62.3247 23.937C62.79 25.0585 63.2672 26.1561 63.7086 27.2657C63.8399 27.5997 64.0069 27.7429 64.3887 27.7667C65.5459 27.8503 66.7032 27.9934 68.0036 28.1247C67.1446 28.9121 66.4049 29.6398 65.5937 30.296C65.0687 30.7255 64.8898 31.1312 65.0926 31.8112C65.3908 32.8253 65.5579 33.8871 65.8084 35.0802C65.1045 34.6507 64.5318 34.2928 63.9472 33.9468C63.3865 33.6127 62.8258 33.0401 62.2531 33.0401C61.7162 33.0281 61.1674 33.6127 60.6186 33.9349C60.034 34.2928 59.4494 34.6507 58.7216 35.0921C58.9364 34.0542 59.0438 33.1236 59.342 32.2646C59.6761 31.2743 59.4733 30.6182 58.6262 30.0097C57.9104 29.4967 57.3019 28.8286 56.5383 28.1366C57.457 28.0411 58.2683 27.9338 59.0795 27.8741C60.6067 27.7667 60.6067 27.7787 61.1793 26.3828C61.5015 25.5954 61.8355 24.8079 62.1696 24.0325C62.1934 23.9967 62.2412 23.9847 62.3247 23.937Z" fill="white"/>
<path d="M41.7915 24.3189C43.1039 24.1876 44.2611 24.0445 45.4303 23.961C45.7883 23.9371 45.9434 23.782 46.0627 23.4837C46.516 22.3742 46.9813 21.2646 47.5063 20C47.9358 21.0141 48.4011 21.8612 48.6397 22.7798C48.9141 23.8059 49.5464 24.0445 50.477 24.0683C51.3479 24.0922 52.2069 24.2234 53.233 24.3189C52.9108 24.6171 52.6722 24.8438 52.4336 25.0586C51.8013 25.6312 51.1928 26.2278 50.5366 26.7766C50.2026 27.051 50.1668 27.3254 50.2503 27.7072C50.477 28.6855 50.7037 29.6757 50.9184 30.654C50.9542 30.8211 50.9542 31 50.99 31.2625C49.9759 30.6421 49.0215 30.0814 48.1028 29.4729C47.6852 29.1985 47.387 29.1627 46.9455 29.461C46.0269 30.0814 45.0724 30.6302 43.9867 31.2983C44.1538 30.4631 44.2015 29.7235 44.464 29.0792C45.0366 27.6475 44.7026 26.6215 43.4141 25.7983C42.8414 25.4165 42.388 24.8677 41.7915 24.3189Z" fill="white"/>
<path d="M28.4892 39.065C27.5228 39.9479 26.6996 40.7353 25.8167 41.4869C25.4588 41.7971 25.4111 42.0954 25.5065 42.5249C25.7451 43.4913 25.948 44.4576 26.1508 45.424C26.1866 45.5911 26.1866 45.7581 26.2104 46.0325C25.1605 45.3882 24.1703 44.8036 23.2158 44.1832C22.8699 43.9566 22.6193 43.9446 22.2614 44.1713C21.307 44.8036 20.3167 45.3763 19.1952 46.0683C19.3742 45.2093 19.4219 44.4576 19.6844 43.7776C20.2213 42.3936 19.9111 41.4034 18.6584 40.5921C18.0738 40.2103 17.6085 39.6496 17 39.1008C18.2885 38.9696 19.4577 38.8264 20.6388 38.7309C21.0087 38.7071 21.1519 38.552 21.2712 38.2418C21.7126 37.1322 22.1898 36.0227 22.7148 34.7581C23.1443 35.796 23.6096 36.667 23.872 37.5975C24.1345 38.5281 24.7072 38.7906 25.5781 38.8145C26.5087 38.8503 27.4154 38.9696 28.4892 39.065Z" fill="white"/>
<path d="M55.1184 49.0152C55.1184 53.1909 51.6943 56.6269 47.5186 56.6389C43.331 56.6508 39.8711 53.2028 39.8711 49.0033C39.8711 44.7918 43.3071 41.3438 47.4948 41.3557C51.7182 41.3677 55.1303 44.8037 55.1184 49.0152ZM47.4232 54.6822C50.5609 54.7419 53.1737 52.2245 53.2214 49.0629C53.2692 45.9848 50.7518 43.372 47.6856 43.3124C44.4763 43.2527 41.8635 45.7223 41.7919 48.8959C41.7323 52.0336 44.2496 54.6226 47.4232 54.6822Z" fill="white"/>
</svg>
