<svg width="81" height="80" viewBox="0 0 81 80" fill="none" xmlns="http://www.w3.org/2000/svg">
<path d="M1.98438 49.3317C1.25125 49.3317 0.65625 48.7261 0.65625 47.9799V4.7244C0.65625 2.48863 2.44391 0.669189 4.64062 0.669189H76.3594C78.5561 0.669189 80.3438 2.48863 80.3438 4.7244V8.77961C80.3438 9.52576 79.7487 10.1313 79.0156 10.1313C78.2825 10.1313 77.6875 9.52576 77.6875 8.77961V4.7244C77.6875 3.98094 77.0898 3.37266 76.3594 3.37266H4.64062C3.91016 3.37266 3.3125 3.98094 3.3125 4.7244V47.9799C3.3125 48.7261 2.7175 49.3317 1.98438 49.3317Z" fill="white"/>
<path d="M40.5 79.0699H25.8906C25.1575 79.0699 24.5625 78.4643 24.5625 77.7182C24.5625 76.972 25.1575 76.3664 25.8906 76.3664H28.5469C30.7436 76.3664 32.5312 74.547 32.5312 72.3112V65.5525C32.5312 64.8064 33.1263 64.2008 33.8594 64.2008C34.5925 64.2008 35.1875 64.8064 35.1875 65.5525V72.3112C35.1875 73.8333 34.6908 75.2364 33.8567 76.3664H40.5C41.2331 76.3664 41.8281 76.972 41.8281 77.7182C41.8281 78.4643 41.2331 79.0699 40.5 79.0699Z" fill="white"/>
<path d="M39.1719 65.5525H4.64062C2.44391 65.5525 0.65625 63.7331 0.65625 61.4973V53.3869C0.65625 52.6407 1.25125 52.0352 1.98438 52.0352H39.1719C39.905 52.0352 40.5 52.6407 40.5 53.3869C40.5 54.1331 39.905 54.7386 39.1719 54.7386H3.3125V61.4973C3.3125 62.2408 3.91016 62.849 4.64062 62.849H39.1719C39.905 62.849 40.5 63.4546 40.5 64.2008C40.5 64.9469 39.905 65.5525 39.1719 65.5525Z" fill="white"/>
<path d="M55.1094 19.5935H68.3906C69.1237 19.5935 69.7188 18.9879 69.7188 18.2418C69.7188 17.4956 69.1237 16.89 68.3906 16.89H55.1094C54.3763 16.89 53.7812 17.4956 53.7812 18.2418C53.7812 18.9879 54.3763 19.5935 55.1094 19.5935Z" fill="white"/>
<path d="M60.4219 73.6629H63.0781C63.8113 73.6629 64.4062 73.0574 64.4062 72.3112C64.4062 71.5651 63.8113 70.9595 63.0781 70.9595H60.4219C59.6888 70.9595 59.0938 71.5651 59.0938 72.3112C59.0938 73.0574 59.6888 73.6629 60.4219 73.6629Z" fill="white"/>
<path d="M73.7031 79.0698H49.7969C46.1339 79.0698 43.1562 76.0392 43.1562 72.3112V18.2417C43.1562 14.5136 46.1339 11.483 49.7969 11.483H73.7031C77.3661 11.483 80.3438 14.5136 80.3438 18.2417V72.3112C80.3438 76.0392 77.3661 79.0698 73.7031 79.0698ZM49.7969 14.1865C47.6002 14.1865 45.8125 16.0059 45.8125 18.2417V72.3112C45.8125 74.5469 47.6002 76.3664 49.7969 76.3664H73.7031C75.8998 76.3664 77.6875 74.5469 77.6875 72.3112V18.2417C77.6875 16.0059 75.8998 14.1865 73.7031 14.1865H49.7969Z" fill="white"/>
</svg>
