<svg width="95" height="95" viewBox="0 0 95 95" fill="none" xmlns="http://www.w3.org/2000/svg">
<circle cx="47.5" cy="47.5" r="46" stroke="#364CC3" stroke-width="3"/>
<circle cx="47.5" cy="47.5" r="39.5" fill="#364CC3"/>
<path d="M28.5412 63.9724C29.9425 64.423 31.2392 64.8422 32.5987 65.2719C32.3373 66.0893 32.0863 66.8753 31.8248 67.7137C28.9595 66.8543 26.1464 66.0159 23.2915 65.1566C24.2118 62.2432 25.1111 59.3822 26.0209 56.4793C26.8366 56.7308 27.6105 56.9824 28.4575 57.2444C27.9869 58.7534 27.5163 60.2311 27.0248 61.8031C27.2131 61.7297 27.349 61.6878 27.4745 61.6249C29.3255 60.7027 31.166 59.77 33.0275 58.8582C33.3725 58.6906 33.4876 58.481 33.4876 58.0932C33.4771 53 33.4876 47.9069 33.4667 42.8242C33.4667 42.3735 33.5817 42.122 34.0105 41.9124C38.3503 39.7641 42.6797 37.5843 47.0196 35.4254C47.3542 35.2577 47.4902 35.0691 47.4902 34.6709C47.4693 32.0719 47.4797 29.4834 47.4797 26.7901C46.5281 27.8066 45.6392 28.7603 44.7817 29.6825C44.0392 28.9384 43.4536 28.3516 42.9098 27.8066C44.8235 25.8574 46.7895 23.8452 48.7137 21.896C50.7111 23.8662 52.7085 25.8259 54.6745 27.7542C54.0784 28.3516 53.4928 28.9384 52.8758 29.5672C51.9765 28.6659 51.0457 27.7332 50.0627 26.7481C50.0418 26.9577 50.0209 27.0835 50.0209 27.2093C50.0209 29.7034 50.0314 32.1976 50.0105 34.6918C50.0105 35.0586 50.1359 35.2368 50.4601 35.4045C54.8 37.5633 59.1294 39.7536 63.4693 41.9019C63.9189 42.122 64.034 42.384 64.034 42.8556C64.0131 47.9069 64.034 52.9686 64.0131 58.0199C64.0131 58.46 64.1281 58.6906 64.5464 58.8897C66.3346 59.749 68.0915 60.6503 69.8588 61.5411C70.0366 61.6354 70.2248 61.7087 70.4967 61.845C70.0052 60.273 69.5346 58.7849 69.0536 57.2758C69.8797 57.0138 70.6536 56.7623 71.4902 56.4898C72.3895 59.3718 73.2889 62.2327 74.2091 65.1671C71.3752 66.0159 68.5621 66.8648 65.6967 67.7242C65.4353 66.8963 65.1843 66.1103 64.9124 65.2824C66.2405 64.8527 67.5477 64.4335 68.9176 63.9933C68.7399 63.8885 68.6458 63.8152 68.5307 63.7628C66.7007 62.8406 64.8706 61.9288 63.0405 60.9961C62.7163 60.8284 62.4549 60.8389 62.1307 61.0066C57.8327 63.1759 53.5242 65.3243 49.2366 67.4831C48.8915 67.6613 48.6301 67.6718 48.2745 67.4936C43.9765 65.3243 39.668 63.1759 35.3699 61.0171C35.0248 60.8389 34.7634 60.8494 34.4183 61.0171C32.5046 61.9917 30.5804 62.9454 28.5412 63.9724ZM36.0497 44.9306C36.0288 45.0668 36.0183 45.1192 36.0183 45.1716C36.0183 49.4788 36.0183 53.7755 36.0078 58.0827C36.0078 58.4391 36.1856 58.5543 36.4471 58.6906C39.919 60.4302 43.3909 62.1699 46.8732 63.9095C47.051 64.0038 47.2392 64.0772 47.4588 64.1715C47.4693 64.0038 47.4797 63.92 47.4797 63.8361C47.4797 59.5813 47.4693 55.3266 47.4902 51.0822C47.4902 50.7154 47.3333 50.5687 47.051 50.422C44.332 49.0701 41.6131 47.7077 38.9046 46.3454C37.9634 45.8738 37.0327 45.4127 36.0497 44.9306ZM50.0209 64.1715C50.1987 64.0981 50.2928 64.0667 50.3869 64.0248C53.9529 62.2432 57.519 60.4407 61.0954 58.6696C61.4196 58.5124 61.4823 58.3028 61.4823 57.9779C61.4719 53.7965 61.4719 49.6151 61.4719 45.4336C61.4719 45.2869 61.4719 45.1402 61.4719 44.9725C61.3569 45.0039 61.3046 45.0039 61.2523 45.0249C57.6026 46.8484 53.9634 48.6824 50.3137 50.4954C50.0314 50.6316 50.0105 50.8202 50.0105 51.0822C50.0105 52.8952 50.0105 54.7082 50.0105 56.5212C50.0209 59.0469 50.0209 61.5725 50.0209 64.1715ZM59.7046 42.9289C59.5582 42.8451 59.4641 42.7822 59.3595 42.7298C55.9294 41.0111 52.5098 39.282 49.0693 37.5738C48.8915 37.4899 48.5987 37.5109 48.4105 37.5947C45.2837 39.1457 42.1673 40.7072 39.051 42.2687C38.6431 42.4678 38.2458 42.6774 37.7961 42.9185C41.4248 44.742 44.9699 46.5235 48.5255 48.2841C48.6719 48.3575 48.9229 48.3156 49.0902 48.2317C50.5752 47.5086 52.0392 46.7646 53.5137 46.0205C55.5634 45.0039 57.6131 43.9769 59.7046 42.9289Z" fill="white"/>
</svg>
