<svg width="22" height="22" viewBox="0 0 22 22" fill="none" xmlns="http://www.w3.org/2000/svg">
<path d="M11.0012 2.00119C5.72362 2.00119 1.44531 6.28027 1.44531 11.557C1.44531 16.8346 5.72362 21.1121 11.0012 21.1121C16.2787 21.1121 20.5562 16.8346 20.5562 11.557C20.5562 6.28027 16.2783 2.00119 11.0012 2.00119ZM15.8146 9.63035C15.8196 9.73357 15.8216 9.83718 15.8216 9.94196C15.8216 13.1244 13.3993 16.7935 8.97009 16.7935C7.61034 16.7935 6.34412 16.3949 5.27852 15.7119C5.46711 15.7341 5.65843 15.7453 5.85284 15.7453C6.9813 15.7453 8.01974 15.3604 8.84358 14.7146C7.79001 14.6949 6.90098 13.9983 6.59441 13.0417C6.7411 13.0705 6.89205 13.0848 7.04727 13.0848C7.26691 13.0848 7.47957 13.0561 7.68174 13.0006C6.57967 12.7794 5.74962 11.8054 5.74962 10.6397C5.74962 10.6292 5.74962 10.6191 5.75001 10.6086C6.07442 10.7891 6.44579 10.8974 6.84083 10.9102C6.19433 10.4775 5.76941 9.74133 5.76941 8.90546C5.76941 8.46425 5.88815 8.05019 6.09538 7.69473C7.28321 9.15149 9.05779 10.1104 11.0594 10.2105C11.0182 10.0347 10.9969 9.85038 10.9969 9.66178C10.9969 8.33231 12.0749 7.2539 13.4052 7.2539C14.0978 7.2539 14.7234 7.5465 15.1627 8.0141C15.7114 7.90661 16.2267 7.7056 16.692 7.42969C16.5115 7.99237 16.1301 8.46425 15.6326 8.76188C16.1204 8.70368 16.5845 8.57407 17.016 8.38275C16.6939 8.86666 16.2853 9.2908 15.8146 9.63035Z" fill="#C0BCBC"/>
</svg>
