<svg width="35" height="35" viewBox="0 0 35 35" fill="none" xmlns="http://www.w3.org/2000/svg">
<path d="M17.5013 3.18359C9.10522 3.18359 2.29883 9.99122 2.29883 18.3861C2.29883 26.7822 9.10522 33.5873 17.5013 33.5873C25.8974 33.5873 32.7026 26.7822 32.7026 18.3861C32.7026 9.99122 25.8968 3.18359 17.5013 3.18359ZM25.1591 15.3209C25.1671 15.4851 25.1702 15.6499 25.1702 15.8166C25.1702 20.8796 21.3166 26.7167 14.2701 26.7167C12.1068 26.7167 10.0924 26.0827 8.39711 24.9962C8.69715 25.0314 9.00151 25.0493 9.3108 25.0493C11.1061 25.0493 12.7581 24.4368 14.0688 23.4095C12.3927 23.3781 10.9783 22.2699 10.4906 20.7481C10.7239 20.7938 10.9641 20.8166 11.211 20.8166C11.5605 20.8166 11.8988 20.771 12.2204 20.6827C10.4671 20.3308 9.14659 18.7812 9.14659 16.9266C9.14659 16.91 9.14659 16.8939 9.1472 16.8773C9.66332 17.1643 10.2541 17.3366 10.8826 17.3569C9.85408 16.6686 9.17807 15.4975 9.17807 14.1677C9.17807 13.4657 9.36698 12.807 9.69665 12.2415C11.5864 14.5591 14.4096 16.0846 17.5939 16.2438C17.5285 15.9642 17.4945 15.6709 17.4945 15.3709C17.4945 13.2558 19.2096 11.5402 21.3259 11.5402C22.4279 11.5402 23.423 12.0057 24.1219 12.7496C24.9948 12.5786 25.8147 12.2588 26.5549 11.8198C26.2678 12.715 25.661 13.4657 24.8695 13.9392C25.6455 13.8466 26.3839 13.6404 27.0704 13.3361C26.558 14.1059 25.9079 14.7807 25.1591 15.3209Z" fill="white"/>
</svg>
