<svg width="18" height="18" viewBox="0 0 18 18" fill="none" xmlns="http://www.w3.org/2000/svg">
<path d="M16.7118 15.9131L13.0556 12.2569H13.0162C14.1432 10.9281 14.7127 9.21503 14.6056 7.47602C14.4985 5.737 13.7231 4.10675 12.4417 2.92628C11.1602 1.74581 9.47193 1.10657 7.72999 1.14229C5.98804 1.178 4.32738 1.8859 3.09538 3.1179C1.86338 4.3499 1.15548 6.01056 1.11977 7.75251C1.08405 9.49445 1.72329 11.1827 2.90376 12.4642C4.08422 13.7457 5.71448 14.521 7.45349 14.6281C9.19251 14.7352 10.9056 14.1657 12.2343 13.0387C12.2343 13.0387 12.2343 13.0669 12.2343 13.0781L15.8906 16.7344C15.9429 16.7871 16.0051 16.8289 16.0736 16.8575C16.1422 16.8861 16.2157 16.9008 16.29 16.9008C16.3642 16.9008 16.4377 16.8861 16.5063 16.8575C16.5748 16.8289 16.6371 16.7871 16.6893 16.7344C16.747 16.6833 16.7936 16.6209 16.8262 16.5512C16.8587 16.4814 16.8766 16.4056 16.8788 16.3286C16.8809 16.2516 16.8671 16.175 16.8384 16.1035C16.8097 16.0321 16.7666 15.9673 16.7118 15.9131ZM7.87497 13.5C6.76245 13.5 5.67491 13.1701 4.74989 12.552C3.82486 11.9339 3.10389 11.0554 2.67815 10.0276C2.2524 8.99975 2.14101 7.86875 2.35805 6.77761C2.57509 5.68647 3.11082 4.68419 3.89749 3.89752C4.68416 3.11085 5.68644 2.57512 6.77759 2.35807C7.86873 2.14103 8.99973 2.25243 10.0276 2.67817C11.0554 3.10391 11.9339 3.82488 12.552 4.74991C13.1701 5.67494 13.5 6.76247 13.5 7.87499C13.5 8.61368 13.3545 9.34513 13.0718 10.0276C12.7891 10.71 12.3748 11.3301 11.8524 11.8525C11.3301 12.3748 10.71 12.7891 10.0276 13.0718C9.34511 13.3545 8.61366 13.5 7.87497 13.5Z" fill="black"/>
</svg>
