<svg width="68" height="88" viewBox="0 0 68 88" fill="none" xmlns="http://www.w3.org/2000/svg">
<g id="helpline copy 1">
<g id="Group">
<path id="Vector" d="M43.1667 61.3002C40.1889 61.2557 37.7444 60.4113 35.3889 59.2891C31.3556 57.3668 27.8222 54.7224 24.5667 51.678C20.8111 48.178 17.5222 44.2891 15.0111 39.778C13.7333 37.4891 12.7 35.1002 12.2556 32.5002C11.9889 30.9557 11.9222 29.3891 12.5444 27.9113C12.8222 27.2557 13.2111 26.6224 13.7 26.1113C15.0667 24.6557 16.5111 23.2668 17.9333 21.8557C19.1333 20.6668 20.7889 20.6557 21.9889 21.8446C23.9667 23.8002 25.9222 25.7668 27.8778 27.7335C29.0444 28.9113 29.0444 30.5557 27.8889 31.7557C27.3222 32.3446 26.7667 32.9557 26.1444 33.4891C25.2333 34.2557 25.1 35.2002 25.3444 36.278C25.6778 37.7224 26.3333 39.0113 27.1667 40.2224C29.1889 43.1668 31.7 45.578 34.8889 47.2224C35.8444 47.7113 36.8444 48.0891 37.9333 48.1335C38.6222 48.1668 39.2 47.9668 39.6889 47.4446C40.3 46.778 40.9556 46.1557 41.6 45.5224C42.8 44.3335 44.4556 44.3224 45.6444 45.5002C47.6111 47.4557 49.5778 49.4224 51.5333 51.3891C52.7222 52.578 52.7111 54.2446 51.5222 55.4446C50.1444 56.8335 48.7667 58.2224 47.3667 59.5891C46.1111 60.8113 44.5889 61.3446 43.1667 61.3002ZM24.8778 33.1002C22.1111 30.3335 19.3556 27.578 16.5889 24.8113C15.9333 25.4668 15.2444 26.1668 14.5444 26.8668C14 27.4113 13.6333 28.0557 13.4444 28.8002C13.1 30.1335 13.2222 31.478 13.5 32.8002C14.0111 35.2113 15 37.4446 16.2444 39.5557C20.6 46.9668 26.4889 52.8557 33.9222 57.178C36.4 58.6224 39.0222 59.7557 41.9222 60.078C43.2667 60.2224 44.6444 60.2113 45.7667 59.378C46.8 58.6113 47.6889 57.6335 48.6 56.778C45.7889 53.9669 43.0444 51.2224 40.2889 48.4669C39.2778 49.3557 38.2333 49.4224 37.1667 49.2002C36.3222 49.0113 35.4667 48.778 34.6778 48.4113C31.6444 47.0002 29.2222 44.8113 27.1556 42.2224C25.9111 40.6668 24.8556 38.978 24.3222 37.0335C23.9556 35.6113 23.8333 34.2224 24.8778 33.1002ZM25.8556 32.178C26.2556 31.7668 26.6778 31.3446 27.0778 30.9224C27.7444 30.2113 27.7444 29.278 27.0556 28.578C26.5444 28.0557 26.0222 27.5335 25.5 27.0113C24.0444 25.5557 22.6 24.1002 21.1444 22.6557C20.5 22.0113 19.6 21.9224 18.9667 22.478C18.4556 22.9224 18.0222 23.4446 17.5778 23.9113C20.3111 26.6335 23.0556 29.378 25.8556 32.178ZM49.5222 55.8446C49.9 55.4557 50.2778 55.0557 50.6667 54.6557C51.4444 53.8557 51.4444 52.9446 50.6667 52.1557C49.8778 51.3557 49.0778 50.5668 48.2778 49.7668C47.1333 48.6224 45.9889 47.4668 44.8333 46.3224C44.1778 45.678 43.2667 45.5891 42.6111 46.1557C42.1111 46.5891 41.6778 47.1002 41.2444 47.5557C43.9778 50.3002 46.7222 53.0446 49.5222 55.8446Z" fill="#364CC3"/>
<path id="Vector_2" d="M32.8111 23.8445C32.8111 23.4556 32.8111 23.1 32.8111 22.7556C42.5333 22.5 50.9 31.0778 50.6111 40.5667C50.2667 40.5667 49.9333 40.5667 49.5333 40.5667C49.4444 36 47.8556 32.0222 44.6111 28.7778C41.3778 25.5333 37.4222 23.9445 32.8111 23.8445Z" fill="#364CC3"/>
<path id="Vector_3" d="M45.8333 40.5558C45.4778 40.5558 45.1222 40.5558 44.7444 40.5558C44.6778 37.2669 43.5333 34.4336 41.2111 32.1225C38.9 29.8225 36.0778 28.6891 32.8111 28.6114C32.8111 28.2336 32.8111 27.878 32.8111 27.5225C39.7889 27.2891 46.0778 33.5114 45.8333 40.5558Z" fill="#364CC3"/>
<path id="Vector_4" d="M41.0778 41.0667C40.7222 41.0667 40.3667 41.0667 39.9778 41.0667C39.9111 39.1111 39.2444 37.4111 37.8667 36.0222C36.4778 34.6333 34.7889 33.9445 32.8111 33.9C32.8111 33.5111 32.8111 33.1556 32.8111 32.8C36.9444 32.5889 41.2222 36.3333 41.0778 41.0667Z" fill="#364CC3"/>
</g>
</g>
</svg>
